<svg width="147" height="142" viewBox="0 0 147 142" fill="none" xmlns="http://www.w3.org/2000/svg">
<g filter="url(#filter0_d_9_369)">
<g clip-path="url(#clip0_9_369)">
<path d="M71.7224 131.427C70.9883 131.427 70.2543 131.409 69.5015 131.371C60.9944 130.9 53.0707 127.795 48.3278 123.052L11.0998 85.8052C6.39457 81.0999 3.83491 73.4209 4.09841 64.7633C4.3619 56.3691 7.29798 48.5584 11.9844 43.8907L27.0601 28.8151C27.4929 28.3822 28.1893 28.3822 28.6222 28.8151C29.0551 29.248 29.0551 29.9444 28.6222 30.3772L13.5466 45.4529C9.25537 49.7441 6.56396 56.9902 6.31929 64.8197C6.07462 72.7622 8.44606 80.0083 12.662 84.2242L49.9088 121.471C54.2753 125.838 61.6531 128.717 69.6332 129.15C77.7074 129.583 84.9912 127.381 89.1318 123.24L104.659 107.713C105.092 107.28 105.788 107.28 106.221 107.713C106.654 108.146 106.654 108.842 106.221 109.275L90.6939 124.802C86.4592 129.075 79.6272 131.427 71.7224 131.427ZM120.074 94.557C119.791 94.557 119.509 94.444 119.283 94.237C118.85 93.8041 118.85 93.1077 119.283 92.6749L126.83 85.1276C131.009 80.9493 133.587 74.0797 133.7 66.7771C133.832 59.2675 131.441 52.5108 127.169 48.2196L88.1531 9.20359C83.8807 4.93122 76.7664 2.31509 69.125 2.22099C61.5025 2.12688 54.4823 4.51715 50.3417 8.65778L40.5924 18.4071C40.1595 18.84 39.4631 18.84 39.0302 18.4071C38.5973 17.9742 38.5973 17.2778 39.0302 16.8449L48.7795 7.09564C53.3154 2.54095 60.9379 -0.112819 69.1439 0.000107385C77.4816 0.113034 84.9724 2.89855 89.7152 7.62262L128.731 46.6386C133.436 51.3439 136.053 58.6841 135.921 66.7959C135.789 74.6631 132.966 82.0974 128.392 86.6898L120.845 94.237C120.638 94.444 120.356 94.557 120.074 94.557Z" fill="url(#paint0_linear_9_369)"/>
</g>
<g clip-path="url(#clip1_9_369)">
<path d="M95.8031 38.2763C88.5312 31.0046 78.8631 27 68.5793 27C58.2956 27 48.6275 31.0046 41.3556 38.2763C34.0838 45.548 30.0793 55.2163 30.0793 65.5C30.0793 75.7837 34.0839 85.4519 41.3556 92.7237C48.6273 99.9955 58.2956 104 68.5793 104C78.8631 104 88.5312 99.9954 95.8031 92.7237C103.075 85.452 107.079 75.7837 107.079 65.5C107.079 55.2163 103.075 45.5481 95.8031 38.2763ZM94.1015 91.0222C87.2843 97.8394 78.2203 101.594 68.5793 101.594C58.9384 101.594 49.8744 97.8394 43.0572 91.0222C36.2399 84.205 32.4856 75.1409 32.4856 65.5C32.4856 55.8591 36.2399 46.795 43.0572 39.9778C49.8744 33.1606 58.9384 29.4062 68.5793 29.4062C78.2203 29.4062 87.2843 33.1606 94.1015 39.9778C100.919 46.795 104.673 55.8591 104.673 65.5C104.673 75.1409 100.919 84.205 94.1015 91.0222Z" fill="url(#paint1_linear_9_369)"/>
<path d="M37.2981 65.5C37.2981 48.2515 51.3309 34.2188 68.5793 34.2188C74.8007 34.2188 80.81 36.0401 85.9577 39.486C86.5098 39.8557 87.2571 39.7077 87.6268 39.1555C87.9964 38.6034 87.8484 37.8561 87.2962 37.4864C81.7512 33.7745 75.2789 31.8125 68.5793 31.8125C59.581 31.8125 51.1214 35.3166 44.7587 41.6793C38.3959 48.0421 34.8918 56.5017 34.8918 65.5C34.8918 73.8016 37.9379 81.7771 43.4689 87.9575C43.7065 88.2231 44.0356 88.3583 44.3659 88.3583C44.6514 88.3583 44.9382 88.2573 45.1677 88.0517C45.6628 87.6085 45.7051 86.8479 45.2619 86.3529C40.1265 80.6143 37.2981 73.2086 37.2981 65.5Z" fill="url(#paint2_linear_9_369)"/>
<path d="M96.593 46.7834C96.2234 46.2312 95.4761 46.0832 94.924 46.4529C94.3719 46.8225 94.2238 47.5698 94.5934 48.1219C98.0392 53.2695 99.8606 59.2788 99.8606 65.5C99.8606 82.7485 85.8278 96.7812 68.5793 96.7812C61.4233 96.7812 54.4282 94.303 48.8828 89.803C48.3668 89.3843 47.6091 89.4631 47.1905 89.9791C46.7718 90.4951 46.8506 91.2527 47.3666 91.6714C53.3393 96.5182 60.8728 99.1875 68.5793 99.1875C77.5776 99.1875 86.0373 95.6834 92.4 89.3207C98.7627 82.9579 102.267 74.4983 102.267 65.5C102.267 58.8005 100.305 52.3283 96.593 46.7834Z" fill="url(#paint3_linear_9_369)"/>
<path d="M89.4321 42.1827C90.2411 42.9065 91.021 43.6812 91.7503 44.4849C91.9877 44.7466 92.3141 44.8795 92.6416 44.8795C92.9299 44.8795 93.2194 44.7763 93.4498 44.5673C93.9418 44.1208 93.9788 43.3598 93.5323 42.8677C92.7472 42.0027 91.9076 41.1689 91.0368 40.3896C90.5417 39.9465 89.7811 39.9886 89.338 40.4837C88.895 40.9788 88.9369 41.7395 89.4321 42.1827Z" fill="url(#paint4_linear_9_369)"/>
<path d="M68.5793 42.6406C69.2438 42.6406 69.7825 42.1019 69.7825 41.4375V37.8281C69.7825 37.1637 69.2438 36.625 68.5793 36.625C67.9149 36.625 67.3762 37.1637 67.3762 37.8281V41.4375C67.3762 42.1019 67.9149 42.6406 68.5793 42.6406Z" fill="url(#paint5_linear_9_369)"/>
<path d="M67.3762 89.5625V93.1719C67.3762 93.8363 67.9149 94.375 68.5793 94.375C69.2438 94.375 69.7825 93.8363 69.7825 93.1719V89.5625C69.7825 88.8981 69.2438 88.3594 68.5793 88.3594C67.9149 88.3594 67.3762 88.8981 67.3762 89.5625Z" fill="url(#paint6_linear_9_369)"/>
<path d="M45.72 65.5C45.72 64.8356 45.1813 64.2969 44.5168 64.2969H40.9075C40.243 64.2969 39.7043 64.8356 39.7043 65.5C39.7043 66.1644 40.243 66.7031 40.9075 66.7031H44.5168C45.1813 66.7031 45.72 66.1644 45.72 65.5Z" fill="url(#paint7_linear_9_369)"/>
<path d="M91.4387 65.5C91.4387 66.1644 91.9774 66.7031 92.6418 66.7031H96.2512C96.9156 66.7031 97.4543 66.1644 97.4543 65.5C97.4543 64.8356 96.9156 64.2969 96.2512 64.2969H92.6418C91.9774 64.2969 91.4387 64.8356 91.4387 65.5Z" fill="url(#paint8_linear_9_369)"/>
<path d="M57.59 44.0597L55.7853 40.9338C55.4531 40.3583 54.7173 40.1614 54.1419 40.4935C53.5665 40.8257 53.3693 41.5616 53.7015 42.137L55.5062 45.2628C55.7291 45.6487 56.1335 45.8645 56.5493 45.8645C56.7534 45.8645 56.9604 45.8125 57.1498 45.7032C57.7251 45.371 57.9222 44.6351 57.59 44.0597Z" fill="url(#paint9_linear_9_369)"/>
<path d="M81.6525 85.7371C81.3203 85.1618 80.5843 84.9649 80.0091 85.2968C79.4337 85.629 79.2365 86.3649 79.5687 86.9403L81.3734 90.0661C81.5963 90.452 82.0007 90.6679 82.4165 90.6679C82.6206 90.6679 82.8275 90.6158 83.017 90.5065C83.5924 90.1743 83.7896 89.4384 83.4574 88.863L81.6525 85.7371Z" fill="url(#paint10_linear_9_369)"/>
<path d="M44.616 80.5392C44.82 80.5392 45.027 80.4872 45.2165 80.3779L48.3423 78.5732C48.9177 78.241 49.1149 77.5051 48.7827 76.9297C48.4505 76.3543 47.7145 76.1575 47.1392 76.4894L44.0133 78.2941C43.4379 78.6263 43.2408 79.3621 43.573 79.9375C43.7957 80.3234 44.2001 80.5392 44.616 80.5392Z" fill="url(#paint11_linear_9_369)"/>
<path d="M89.4191 54.6721C89.6231 54.6721 89.8301 54.62 90.0196 54.5107L93.1454 52.706C93.7208 52.3738 93.918 51.6379 93.5858 51.0625C93.2536 50.4871 92.5177 50.2903 91.9423 50.6222L88.8164 52.4269C88.241 52.7591 88.0439 53.4949 88.3761 54.0703C88.599 54.4562 89.0034 54.6721 89.4191 54.6721Z" fill="url(#paint12_linear_9_369)"/>
<path d="M83.0169 40.4935C82.4415 40.1611 81.7056 40.3583 81.3734 40.9339L79.5687 44.0597C79.2365 44.6351 79.4337 45.371 80.0091 45.7032C80.1986 45.8127 80.4054 45.8646 80.6096 45.8646C81.0254 45.8646 81.4298 45.6487 81.6527 45.2628L83.4574 42.137C83.7894 41.5616 83.5923 40.8257 83.0169 40.4935Z" fill="url(#paint13_linear_9_369)"/>
<path d="M57.1497 85.2968C56.5743 84.9646 55.8384 85.1618 55.5062 85.7372L53.7015 88.863C53.3693 89.4384 53.5665 90.1743 54.1419 90.5065C54.3314 90.616 54.5382 90.6679 54.7424 90.6679C55.1582 90.6679 55.5626 90.452 55.7855 90.0661L57.5902 86.9403C57.9223 86.3649 57.7251 85.629 57.1497 85.2968Z" fill="url(#paint14_linear_9_369)"/>
<path d="M88.8165 78.5731L91.9424 80.3778C92.1319 80.4873 92.3387 80.5392 92.5429 80.5392C92.9587 80.5392 93.3631 80.3234 93.586 79.9375C93.9182 79.3621 93.7211 78.6262 93.1457 78.294L90.0198 76.4893C89.4444 76.157 88.7085 76.3543 88.3763 76.9297C88.044 77.5051 88.2411 78.2409 88.8165 78.5731Z" fill="url(#paint15_linear_9_369)"/>
<path d="M48.3422 52.4268L45.2163 50.6221C44.6409 50.2898 43.9051 50.4871 43.5729 51.0625C43.2407 51.6379 43.4378 52.3737 44.0132 52.7059L47.1391 54.5106C47.3286 54.6201 47.5354 54.672 47.7396 54.672C48.1554 54.672 48.5598 54.4562 48.7827 54.0703C49.1148 53.4949 48.9176 52.759 48.3422 52.4268Z" fill="url(#paint16_linear_9_369)"/>
<path d="M76.9549 81.2085C77.159 81.2085 77.3659 81.1564 77.5554 81.0471C78.1308 80.7149 78.328 79.979 77.9958 79.4036L71.3214 67.8432C71.8615 67.212 72.1887 66.3938 72.1887 65.5C72.1887 63.9316 71.1828 62.5942 69.7825 62.0976V46.25C69.7825 45.5856 69.2438 45.0469 68.5793 45.0469C67.9149 45.0469 67.3762 45.5856 67.3762 46.25V62.0976C65.9759 62.5942 64.97 63.9316 64.97 65.5C64.97 67.4903 66.5891 69.1094 68.5793 69.1094C68.8045 69.1094 69.0247 69.0876 69.2385 69.048L75.9119 80.6067C76.1348 80.9926 76.5392 81.2085 76.9549 81.2085ZM67.3762 65.5C67.3762 64.8366 67.916 64.2969 68.5793 64.2969C69.2427 64.2969 69.7825 64.8366 69.7825 65.5C69.7825 66.1634 69.2427 66.7031 68.5793 66.7031C67.916 66.7031 67.3762 66.1634 67.3762 65.5Z" fill="url(#paint17_linear_9_369)"/>
</g>
</g>
<defs>
<filter id="filter0_d_9_369" x="-6.09236" y="-10.1717" width="152.185" height="151.771" filterUnits="userSpaceOnUse" color-interpolation-filters="sRGB">
<feFlood flood-opacity="0" result="BackgroundImageFix"/>
<feColorMatrix in="SourceAlpha" type="matrix" values="0 0 0 0 0 0 0 0 0 0 0 0 0 0 0 0 0 0 127 0" result="hardAlpha"/>
<feMorphology radius="2.9062" operator="dilate" in="SourceAlpha" result="effect1_dropShadow_9_369"/>
<feOffset/>
<feGaussianBlur stdDeviation="3.63275"/>
<feColorMatrix type="matrix" values="0 0 0 0 0 0 0 0 0 1 0 0 0 0 0.407843 0 0 0 1 0"/>
<feBlend mode="normal" in2="BackgroundImageFix" result="effect1_dropShadow_9_369"/>
<feBlend mode="normal" in="SourceGraphic" in2="effect1_dropShadow_9_369" result="shape"/>
</filter>
<linearGradient id="paint0_linear_9_369" x1="4.07959" y1="65.7179" x2="135.92" y2="65.7179" gradientUnits="userSpaceOnUse">
<stop stop-color="#8FFF70"/>
<stop offset="1" stop-color="#8FFFFF"/>
</linearGradient>
<linearGradient id="paint1_linear_9_369" x1="30.0793" y1="66.1754" x2="107.079" y2="66.1754" gradientUnits="userSpaceOnUse">
<stop stop-color="#8FFF73"/>
<stop offset="1" stop-color="#8FFFF9"/>
</linearGradient>
<linearGradient id="paint2_linear_9_369" x1="34.8918" y1="60.5814" x2="87.8302" y2="60.5814" gradientUnits="userSpaceOnUse">
<stop stop-color="#8FFF73"/>
<stop offset="1" stop-color="#8FFFF9"/>
</linearGradient>
<linearGradient id="paint3_linear_9_369" x1="46.9215" y1="73.1828" x2="102.267" y2="73.1828" gradientUnits="userSpaceOnUse">
<stop stop-color="#8FFF73"/>
<stop offset="1" stop-color="#8FFFF9"/>
</linearGradient>
<linearGradient id="paint4_linear_9_369" x1="89.0314" y1="42.5233" x2="93.8444" y2="42.5233" gradientUnits="userSpaceOnUse">
<stop stop-color="#8FFF73"/>
<stop offset="1" stop-color="#8FFFF9"/>
</linearGradient>
<linearGradient id="paint5_linear_9_369" x1="67.3762" y1="39.6856" x2="69.7825" y2="39.6856" gradientUnits="userSpaceOnUse">
<stop stop-color="#8FFF73"/>
<stop offset="1" stop-color="#8FFFF9"/>
</linearGradient>
<linearGradient id="paint6_linear_9_369" x1="67.3762" y1="91.42" x2="69.7825" y2="91.42" gradientUnits="userSpaceOnUse">
<stop stop-color="#8FFF73"/>
<stop offset="1" stop-color="#8FFFF9"/>
</linearGradient>
<linearGradient id="paint7_linear_9_369" x1="39.7043" y1="65.5211" x2="45.72" y2="65.5211" gradientUnits="userSpaceOnUse">
<stop stop-color="#8FFF73"/>
<stop offset="1" stop-color="#8FFFF9"/>
</linearGradient>
<linearGradient id="paint8_linear_9_369" x1="91.4387" y1="65.5211" x2="97.4543" y2="65.5211" gradientUnits="userSpaceOnUse">
<stop stop-color="#8FFF73"/>
<stop offset="1" stop-color="#8FFFF9"/>
</linearGradient>
<linearGradient id="paint9_linear_9_369" x1="53.5402" y1="43.1469" x2="57.7514" y2="43.1469" gradientUnits="userSpaceOnUse">
<stop stop-color="#8FFF73"/>
<stop offset="1" stop-color="#8FFFF9"/>
</linearGradient>
<linearGradient id="paint10_linear_9_369" x1="79.4073" y1="87.9502" x2="83.6188" y2="87.9502" gradientUnits="userSpaceOnUse">
<stop stop-color="#8FFF73"/>
<stop offset="1" stop-color="#8FFFF9"/>
</linearGradient>
<linearGradient id="paint11_linear_9_369" x1="43.4116" y1="78.4706" x2="48.9441" y2="78.4706" gradientUnits="userSpaceOnUse">
<stop stop-color="#8FFF73"/>
<stop offset="1" stop-color="#8FFFF9"/>
</linearGradient>
<linearGradient id="paint12_linear_9_369" x1="88.2147" y1="52.6034" x2="93.7472" y2="52.6034" gradientUnits="userSpaceOnUse">
<stop stop-color="#8FFF73"/>
<stop offset="1" stop-color="#8FFFF9"/>
</linearGradient>
<linearGradient id="paint13_linear_9_369" x1="79.4073" y1="43.1468" x2="83.6186" y2="43.1468" gradientUnits="userSpaceOnUse">
<stop stop-color="#8FFF73"/>
<stop offset="1" stop-color="#8FFFF9"/>
</linearGradient>
<linearGradient id="paint14_linear_9_369" x1="53.5402" y1="87.9502" x2="57.7515" y2="87.9502" gradientUnits="userSpaceOnUse">
<stop stop-color="#8FFF73"/>
<stop offset="1" stop-color="#8FFFF9"/>
</linearGradient>
<linearGradient id="paint15_linear_9_369" x1="88.2148" y1="78.4705" x2="93.7474" y2="78.4705" gradientUnits="userSpaceOnUse">
<stop stop-color="#8FFF73"/>
<stop offset="1" stop-color="#8FFFF9"/>
</linearGradient>
<linearGradient id="paint16_linear_9_369" x1="43.4115" y1="52.6033" x2="48.944" y2="52.6033" gradientUnits="userSpaceOnUse">
<stop stop-color="#8FFF73"/>
<stop offset="1" stop-color="#8FFFF9"/>
</linearGradient>
<linearGradient id="paint17_linear_9_369" x1="64.97" y1="63.4449" x2="78.1571" y2="63.4449" gradientUnits="userSpaceOnUse">
<stop stop-color="#8FFF73"/>
<stop offset="1" stop-color="#8FFFF9"/>
</linearGradient>
<clipPath id="clip0_9_369">
<rect width="131.841" height="131.427" fill="white" transform="translate(4.07935)"/>
</clipPath>
<clipPath id="clip1_9_369">
<rect width="77" height="77" fill="white" transform="translate(30.0793 27)"/>
</clipPath>
</defs>
</svg>
