<svg width="183" height="63" viewBox="0 0 183 63" fill="none" xmlns="http://www.w3.org/2000/svg">
<path d="M24.3806 1.89327C18.347 6.51278 12.7386 11.6626 7.62242 17.2813C9.02186 19.9925 9.70259 21.3364 11.0436 24.0009C11.0639 24.0284 11.0815 24.0577 11.0962 24.0886C14.0236 29.9726 16.9189 35.8772 19.8113 41.7788C20.9098 44.0225 22.318 45.346 23.5772 45.3314C24.702 45.3314 25.9495 44.2709 27.0218 42.442C28.0297 44.4345 28.5351 45.4307 29.5548 47.4087C28.8329 48.3227 27.9149 49.0628 26.8687 49.5746C25.8225 50.0863 24.6747 50.3565 23.51 50.3653C19.6623 50.3799 16.729 47.4437 15.239 44.119C11.587 36.5228 7.93503 28.953 4.16326 21.4212C3.39586 22.3911 2.63917 23.3776 1.89319 24.3807C-0.631063 28.2956 -0.631063 33.7999 1.89319 37.7148C8.37966 46.1618 15.9425 53.7246 24.3894 60.2111C28.3043 62.7353 33.8086 62.7353 37.7235 60.2111C46.1705 53.7246 53.7333 46.1618 60.2197 37.7148C62.744 33.797 62.7411 28.2986 60.2197 24.3807C59.4718 23.3757 58.7151 22.397 57.9497 21.4328C54.1867 28.9676 50.5259 36.5491 46.871 44.1365C45.3781 47.4525 42.4448 50.3945 38.5971 50.3799C35.2898 50.2309 32.5377 48.1011 30.9133 45.311C30.9117 45.3187 30.9117 45.3266 30.9133 45.3343C29.844 43.2454 29.3123 42.2024 28.2576 40.1164L27.6733 38.9477C27.6476 38.9174 27.6241 38.8851 27.6032 38.8513C27.4045 38.454 27.311 38.267 27.1036 37.8638C25.3954 34.4729 23.7019 31.0887 22.0229 27.7113C21.0307 26.0591 20.4972 24.1722 20.4774 22.245C20.4745 22.1905 20.4745 22.1359 20.4774 22.0814C20.5125 16.3113 25.3448 11.777 31.0448 11.7741C36.8208 11.7741 41.6677 16.3989 41.6122 22.245C41.6122 22.2947 41.6122 22.3444 41.6122 22.394C41.5682 24.1942 41.0772 25.9552 40.1835 27.5185C38.4305 30.8647 36.6873 34.2119 34.9539 37.56C33.8553 35.4009 33.309 34.3229 32.2193 32.1726C33.6187 29.3825 34.314 27.986 35.7252 25.19C35.7515 25.1433 35.7748 25.0965 35.804 25.0498C36.2927 24.209 36.5535 23.2554 36.5607 22.283C36.5607 22.248 36.5607 22.2129 36.5607 22.1778C36.5468 20.7157 35.9526 19.319 34.9088 18.2949C33.8651 17.2709 32.4573 16.7034 30.9951 16.7174C29.533 16.7313 28.1362 17.3256 27.1122 18.3693C26.0882 19.4131 25.5207 20.8209 25.5347 22.283C25.5347 22.3239 25.5347 22.3619 25.5347 22.3999C25.5612 23.3812 25.8475 24.3379 26.3644 25.1725C26.4047 25.2378 26.4418 25.305 26.4754 25.3741C27.5827 27.574 28.129 28.6725 29.2276 30.8666H29.2042C30.7176 33.8583 32.2348 36.8491 33.756 39.8388V39.8593C34.1329 40.613 34.3199 40.987 34.6997 41.7408L34.7289 41.7934C35.8566 43.9816 37.2824 45.2993 38.527 45.3168C39.7716 45.3343 41.1973 44.0079 42.2958 41.7671C46.313 33.5866 50.3302 25.3887 54.4876 17.2667C49.3677 11.6509 43.7542 6.50578 37.7148 1.89327C35.7112 0.655557 33.4027 0 31.0477 0C28.6927 0 26.3842 0.655557 24.3806 1.89327" fill="url(#paint0_linear_33_15)"/>
<path d="M86.5403 19.8464C86.6469 19.5756 86.84 19.3476 87.0896 19.1978C87.343 19.037 87.6367 18.9509 87.9368 18.9495C88.1474 18.9426 88.3569 18.9814 88.551 19.0631C88.7452 19.1448 88.9194 19.2675 89.0616 19.4228C89.3263 19.6981 89.4767 20.0635 89.4823 20.4454C89.48 20.6492 89.429 20.8496 89.3333 21.0297C89.2382 21.2157 89.1638 21.4117 89.1113 21.614C88.9915 21.9646 88.7841 22.5314 88.4861 23.3085C88.1881 24.0857 87.7966 25.1316 87.3174 26.4288C86.8383 27.7259 86.2277 29.3504 85.4973 31.3166L87.7907 37.5512L94.5104 19.8435C94.614 19.5709 94.8079 19.342 95.0597 19.1949C95.313 19.0338 95.6067 18.9477 95.9069 18.9466C96.117 18.9401 96.3259 18.9791 96.5195 19.0608C96.7131 19.1424 96.8868 19.2649 97.0288 19.4199C97.3004 19.6954 97.4562 20.0644 97.4641 20.4512C97.4604 20.6549 97.4094 20.8549 97.3151 21.0355C97.2801 21.1056 97.1544 21.4445 96.9412 22.061C96.7279 22.6774 96.3247 23.7672 95.7433 25.3273C95.1619 26.8875 94.3643 29.0114 93.3505 31.6876C92.3367 34.3638 91.0308 37.7674 89.4356 41.8869C89.3149 42.2289 89.1146 42.5373 88.8513 42.7867C88.5316 43.0258 88.1398 43.1486 87.7409 43.1348C87.3419 43.121 86.9596 42.9714 86.6572 42.7108C86.4047 42.482 86.2052 42.2008 86.0729 41.8869C85.6405 40.7182 85.2412 39.5964 84.875 38.5212C84.5088 37.4461 84.167 36.442 83.8495 35.5091C83.4853 36.4401 83.1113 37.4461 82.7276 38.5271C82.3439 39.608 81.9203 40.7299 81.4567 41.8927C81.3372 42.2353 81.1367 42.544 80.8724 42.7926C80.5736 43.043 80.1892 43.1677 79.8002 43.1402C79.5943 43.1489 79.3888 43.1159 79.196 43.0431C79.0032 42.9703 78.8271 42.8592 78.6783 42.7166C78.4279 42.486 78.2289 42.2053 78.094 41.8927C76.6975 38.0713 75.5172 34.8371 74.553 32.1901C73.5889 29.5432 72.8098 27.4153 72.2158 25.8065C71.6198 24.1938 71.1883 23.0251 70.9215 22.3006C70.6527 21.5702 70.5213 21.1874 70.5213 21.1524C70.393 20.865 70.3461 20.5479 70.3858 20.2356C70.4254 19.9234 70.5501 19.6281 70.7462 19.3819C70.8824 19.2363 71.0493 19.1228 71.2347 19.0496C71.4201 18.9763 71.6195 18.9451 71.8184 18.9583C72.151 18.9505 72.4791 19.0365 72.765 19.2066C73.0204 19.3503 73.22 19.5756 73.3318 19.8464L79.8148 37.5542L82.2105 31.2698C81.5444 29.4721 80.9786 27.9344 80.5131 26.6566C80.0485 25.377 79.6687 24.3369 79.3649 23.5393C79.061 22.7417 78.8507 22.1486 78.7192 21.7659C78.6396 21.563 78.5733 21.3551 78.5206 21.1436C78.4147 20.9264 78.3626 20.6869 78.3686 20.4454C78.3538 20.0531 78.4885 19.6698 78.7455 19.3731C78.8813 19.2278 79.0476 19.1144 79.2326 19.0411C79.4175 18.9679 79.6163 18.9366 79.8148 18.9495C80.1483 18.9418 80.4773 19.0278 80.7643 19.1978C81.0138 19.3469 81.2062 19.5752 81.3107 19.8464L83.8495 27.0803L86.5403 19.8464Z" fill="white"/>
<path d="M122.707 38.603C121.565 39.8697 120.225 40.9423 118.739 41.7788C117.213 42.6552 115.482 43.1119 113.723 43.1023C110.563 43.1276 107.52 41.9093 105.25 39.7103C104.142 38.6297 103.261 37.3384 102.659 35.9122C102.015 34.3998 101.692 32.7703 101.709 31.1267C101.701 29.5101 102.015 27.9081 102.632 26.4142C103.222 24.9703 104.086 23.6547 105.177 22.5401C106.273 21.4314 107.578 20.5506 109.016 19.9487C110.537 19.3044 112.173 18.9783 113.825 18.9904C115.398 18.9856 116.954 19.3173 118.389 19.9633C121.264 21.2362 123.557 23.5412 124.816 26.4229C125.466 27.8952 125.799 29.488 125.792 31.0975V41.6152C125.801 41.824 125.768 42.0325 125.694 42.2281C125.62 42.4237 125.508 42.6023 125.363 42.7533C125.219 42.9043 125.045 43.0244 124.853 43.1065C124.661 43.1885 124.454 43.2309 124.245 43.2309C124.036 43.2309 123.829 43.1885 123.637 43.1065C123.445 43.0244 123.271 42.9043 123.126 42.7533C122.982 42.6023 122.869 42.4237 122.796 42.2281C122.722 42.0325 122.689 41.824 122.698 41.6152L122.707 38.603ZM122.707 31.1208C122.715 29.9165 122.477 28.7233 122.005 27.6149C121.107 25.4479 119.386 23.7258 117.22 22.8264C116.111 22.3569 114.918 22.1193 113.714 22.1282C112.523 22.1194 111.343 22.3571 110.249 22.8264C108.097 23.7389 106.387 25.4577 105.487 27.6149C105.017 28.7235 104.779 29.9167 104.789 31.1208C104.78 32.3116 105.017 33.4914 105.487 34.5858C106.4 36.729 108.106 38.4363 110.249 39.3509C111.335 39.806 112.499 40.0423 113.677 40.0463C114.854 40.0503 116.02 39.8219 117.109 39.3743C119.24 38.4808 120.945 36.8018 121.871 34.6852C122.364 33.5583 122.643 32.3497 122.695 31.1208" fill="white"/>
<path d="M144.101 19.0488C145.324 19.0255 146.54 19.2235 147.692 19.6332C148.656 19.9823 149.577 20.4421 150.435 21.0034C151.098 21.4301 151.695 21.9518 152.206 22.5518C152.621 23.066 152.831 23.4575 152.831 23.7205C152.831 23.9017 152.791 24.0807 152.713 24.2445C152.635 24.4082 152.522 24.5526 152.381 24.667C152.112 24.9221 151.756 25.0652 151.385 25.0673C151.181 25.0711 150.978 25.0331 150.789 24.9557C150.6 24.8784 150.429 24.7632 150.286 24.6174C149.441 23.8766 148.481 23.2786 147.444 22.8469C146.351 22.4041 145.181 22.1856 144.002 22.2041C142.809 22.1899 141.626 22.4237 140.528 22.8907C138.375 23.8016 136.665 25.5194 135.763 27.6763C135.295 28.7855 135.058 29.9783 135.065 31.1822C135.057 32.3729 135.295 33.5524 135.763 34.6472C136.679 36.787 138.386 38.4901 140.528 39.4006C142.736 40.3236 145.221 40.332 147.435 39.424C148.49 38.9821 149.454 38.3481 150.278 37.5542C150.42 37.4078 150.591 37.2922 150.78 37.2148C150.969 37.1374 151.172 37.0998 151.376 37.1042C151.774 37.1045 152.158 37.256 152.448 37.5279C152.602 37.661 152.724 37.8264 152.807 38.0123C152.889 38.1981 152.929 38.3998 152.925 38.603C152.925 38.866 152.729 39.2575 152.34 39.7717C151.862 40.3756 151.28 40.89 150.622 41.2909C149.742 41.8427 148.794 42.2796 147.803 42.591C146.568 42.9719 145.28 43.1563 143.988 43.1373C140.827 43.1642 137.784 41.9457 135.515 39.7454C134.406 38.6649 133.524 37.3736 132.921 35.9473C132.278 34.4345 131.955 32.8053 131.971 31.1617C131.96 29.593 132.261 28.0377 132.857 26.5863C133.452 25.1348 134.33 23.8161 135.439 22.7067C136.546 21.6088 137.849 20.7288 139.281 20.1123C140.802 19.453 142.435 19.0891 144.093 19.0401" fill="white"/>
<path d="M170.738 18.9904C172.309 18.9892 173.863 19.3239 175.295 19.9721C178.171 21.245 180.464 23.5499 181.723 26.4317C182.361 27.8984 182.693 29.4802 182.698 31.0798C182.703 32.6795 182.381 34.2633 181.752 35.734C181.134 37.1514 180.262 38.4443 179.181 39.5496C178.064 40.682 176.732 41.5789 175.263 42.1871C173.793 42.7953 172.217 43.1025 170.627 43.0906C167.467 43.1143 164.424 41.8962 162.154 39.6986C161.046 38.6172 160.166 37.3261 159.562 35.9005C158.614 33.6936 158.347 31.2534 158.796 28.8935C159.244 26.5336 160.388 24.3617 162.081 22.657C163.188 21.5611 164.49 20.6821 165.92 20.0655C167.444 19.4065 169.078 19.0417 170.738 18.9904V18.9904ZM170.638 22.134C169.446 22.1249 168.266 22.3627 167.17 22.8323C165.018 23.7456 163.308 25.4641 162.405 27.6208C161.939 28.7304 161.702 29.923 161.71 31.1267C161.703 32.317 161.94 33.4962 162.405 34.5917C163.322 36.7338 165.028 38.4405 167.17 39.3568C168.266 39.824 169.447 40.0607 170.638 40.0521C171.842 40.0607 173.035 39.8241 174.144 39.3568C176.301 38.454 178.019 36.7439 178.933 34.5917C179.402 33.4972 179.64 32.3175 179.631 31.1267C179.641 29.9226 179.403 28.7293 178.933 27.6208C178.026 25.4543 176.298 23.7355 174.127 22.8411C173.018 22.3714 171.825 22.1337 170.621 22.1428" fill="white"/>
<path d="M85.3804 57.4239V49.9592H87.4839C88.0846 49.947 88.6776 50.0953 89.2018 50.3887C89.6996 50.673 90.1014 51.0992 90.3558 51.6128C90.6359 52.1782 90.7771 52.8021 90.7678 53.433V53.9092C90.7826 54.5493 90.6433 55.1836 90.3617 55.7586C90.1037 56.2731 89.6964 56.6977 89.193 56.9769C88.655 57.2681 88.0519 57.4179 87.4401 57.4122L85.3804 57.4239ZM86.362 50.7743V56.6175H87.3963C87.7247 56.636 88.0531 56.5823 88.3585 56.4602C88.6639 56.338 88.9388 56.1504 89.1638 55.9105C89.5845 55.4401 89.7978 54.7682 89.7978 53.8975V53.4651C89.8427 52.7561 89.63 52.0548 89.1989 51.4901C88.9889 51.2513 88.7277 51.063 88.4348 50.939C88.142 50.8151 87.8249 50.7588 87.5073 50.7743H86.362Z" fill="white"/>
<path d="M93.4002 50.415C93.3964 50.2724 93.4465 50.1337 93.5405 50.0264C93.6558 49.9246 93.8044 49.8683 93.9582 49.8683C94.1121 49.8683 94.2607 49.9246 94.376 50.0264C94.4729 50.1323 94.5252 50.2715 94.5221 50.415C94.5143 50.5251 94.4755 50.6307 94.4101 50.7196C94.3448 50.8085 94.2556 50.8771 94.1529 50.9174C94.0502 50.9578 93.9382 50.9682 93.8298 50.9476C93.7214 50.9269 93.6211 50.876 93.5405 50.8007C93.4456 50.695 93.3954 50.5568 93.4002 50.415V50.415ZM94.4228 57.4268H93.4908V51.8758H94.4374L94.4228 57.4268Z" fill="white"/>
<path d="M96.9967 54.6075C96.961 53.8779 97.1719 53.1574 97.5956 52.5624C97.7855 52.3274 98.0248 52.137 98.2964 52.0046C98.568 51.8723 98.8654 51.8012 99.1675 51.7965C99.4696 51.7918 99.7691 51.8535 100.045 51.9772C100.32 52.101 100.565 52.2838 100.763 52.5127L100.809 51.8992H101.686V57.3041C101.703 57.6153 101.656 57.9267 101.546 58.2184C101.436 58.5102 101.267 58.7759 101.049 58.9986C100.818 59.2084 100.547 59.3697 100.252 59.4731C99.9578 59.5764 99.6455 59.6198 99.334 59.6005C98.9309 59.5987 98.5327 59.5121 98.1653 59.3463C97.8135 59.1989 97.5099 58.956 97.2889 58.6451L97.7826 58.0608C97.9542 58.2941 98.1781 58.4838 98.4364 58.6148C98.6947 58.7457 98.9801 58.8141 99.2697 58.8146C99.4665 58.8254 99.6635 58.7963 99.8488 58.7291C100.034 58.6618 100.204 58.5577 100.348 58.4231C100.483 58.2764 100.587 58.1041 100.653 57.9163C100.72 57.7286 100.748 57.5293 100.736 57.3304V56.8542C100.543 57.072 100.303 57.2438 100.035 57.357C99.7663 57.4702 99.476 57.522 99.185 57.5086C98.8787 57.5155 98.5753 57.4478 98.301 57.3114C98.0267 57.175 97.7896 56.974 97.6102 56.7256C97.1781 56.1064 96.9625 55.3618 96.9967 54.6075V54.6075ZM97.9491 54.7156C97.9229 55.2303 98.0566 55.7406 98.3319 56.1764C98.4518 56.3485 98.6132 56.4878 98.8011 56.5812C98.9889 56.6746 99.1973 56.7193 99.407 56.711C99.6828 56.7216 99.9555 56.6497 100.19 56.5045C100.425 56.3593 100.611 56.1474 100.725 55.8959V53.3687C100.607 53.1246 100.421 52.9197 100.189 52.7788C99.9572 52.6378 99.6898 52.5667 99.4187 52.5741C99.2079 52.5657 98.9983 52.6105 98.8094 52.7045C98.6205 52.7984 98.4582 52.9385 98.3377 53.1116C98.046 53.5933 97.9121 54.1541 97.955 54.7156H97.9491Z" fill="white"/>
<path d="M104.403 50.415C104.399 50.2724 104.449 50.1337 104.543 50.0264C104.597 49.9715 104.663 49.929 104.735 49.9018C104.807 49.8746 104.884 49.8633 104.961 49.8686C105.038 49.8634 105.116 49.8748 105.188 49.902C105.261 49.9292 105.327 49.9716 105.382 50.0264C105.478 50.1326 105.529 50.2718 105.525 50.415C105.53 50.5574 105.479 50.6961 105.382 50.8006C105.326 50.854 105.26 50.8952 105.187 50.9213C105.115 50.9475 105.038 50.9581 104.961 50.9525C104.885 50.9581 104.808 50.9474 104.736 50.9213C104.664 50.8951 104.598 50.854 104.543 50.8006C104.448 50.695 104.398 50.5568 104.403 50.415V50.415ZM105.428 57.4268H104.482V51.8758H105.428V57.4268Z" fill="white"/>
<path d="M109.516 50.5435V51.8845H110.55V52.6178H109.516V56.0566C109.502 56.2344 109.552 56.4112 109.656 56.5561C109.717 56.6169 109.791 56.6634 109.872 56.6921C109.954 56.7209 110.04 56.7314 110.126 56.7227C110.278 56.7172 110.429 56.6966 110.576 56.6613V57.4239C110.339 57.49 110.095 57.5243 109.849 57.5261C109.671 57.5391 109.492 57.5111 109.326 57.4442C109.161 57.3774 109.013 57.2735 108.893 57.1405C108.659 56.8275 108.544 56.441 108.569 56.0507V52.6178H107.561V51.8845H108.569V50.5435H109.516Z" fill="white"/>
<path d="M116.364 57.4239C116.291 57.2367 116.247 57.0398 116.232 56.8396C116.032 57.0583 115.788 57.2325 115.517 57.3507C115.245 57.469 114.951 57.5288 114.655 57.5261C114.164 57.5455 113.685 57.3797 113.311 57.0616C113.143 56.9175 113.009 56.738 112.918 56.5359C112.828 56.3339 112.783 56.1143 112.788 55.893C112.777 55.632 112.832 55.3724 112.946 55.1378C113.061 54.9031 113.233 54.7008 113.445 54.549C113.996 54.1998 114.643 54.0332 115.295 54.0728H116.218V53.6375C116.226 53.4926 116.204 53.3475 116.154 53.2113C116.104 53.0751 116.026 52.9507 115.926 52.8457C115.806 52.7416 115.667 52.6621 115.517 52.612C115.366 52.5618 115.207 52.542 115.049 52.5536C114.746 52.5427 114.448 52.6332 114.202 52.8107C114.098 52.8774 114.012 52.9688 113.951 53.0769C113.891 53.185 113.859 53.3064 113.857 53.4301H112.905C112.91 53.1381 113.013 52.8562 113.197 52.6295C113.406 52.3604 113.681 52.1493 113.994 52.016C114.345 51.8637 114.723 51.787 115.105 51.7911C115.646 51.76 116.18 51.9307 116.603 52.2702C116.786 52.4368 116.931 52.6406 117.028 52.8679C117.126 53.0952 117.173 53.3407 117.167 53.5878V56.1384C117.151 56.5513 117.217 56.9633 117.36 57.3508V57.4326L116.364 57.4239ZM114.792 56.7022C115.09 56.7011 115.382 56.6215 115.639 56.4714C115.888 56.3396 116.092 56.136 116.224 55.8871V54.7506H115.479C114.31 54.7506 113.731 55.0905 113.74 55.7702C113.734 55.9006 113.757 56.0307 113.808 56.151C113.858 56.2712 113.935 56.3787 114.032 56.4656C114.249 56.6325 114.519 56.7164 114.792 56.7022V56.7022Z" fill="white"/>
<path d="M120.954 57.4239H120.019V49.5619H120.954V57.4239Z" fill="white"/>
<path d="M131.918 55.4723H128.795L128.094 57.4239H127.089L129.929 49.9592H130.788L133.639 57.4122H132.64L131.918 55.4723ZM129.093 54.6688H131.626L130.358 51.1834L129.093 54.6688Z" fill="white"/>
<path d="M135.562 54.6075C135.526 53.8779 135.737 53.1574 136.161 52.5624C136.35 52.3274 136.59 52.137 136.861 52.0046C137.133 51.8723 137.43 51.8012 137.732 51.7965C138.035 51.7918 138.334 51.8535 138.61 51.9772C138.885 52.101 139.13 52.2838 139.328 52.5127L139.374 51.8992H140.251V57.3041C140.268 57.6152 140.22 57.9265 140.11 58.2182C140 58.5098 139.831 58.7756 139.614 58.9986C139.383 59.2084 139.112 59.3697 138.817 59.4731C138.523 59.5764 138.21 59.6198 137.899 59.6005C137.496 59.5993 137.097 59.5127 136.73 59.3463C136.378 59.1989 136.075 58.956 135.854 58.6451L136.345 58.0608C136.517 58.2943 136.741 58.4842 137 58.6151C137.259 58.746 137.545 58.8144 137.835 58.8146C138.031 58.8254 138.228 58.7963 138.414 58.7291C138.599 58.6618 138.769 58.5577 138.913 58.4231C139.047 58.2763 139.151 58.1039 139.217 57.9161C139.283 57.7283 139.311 57.5291 139.298 57.3304V56.8542C139.105 57.072 138.865 57.2438 138.597 57.357C138.328 57.4702 138.038 57.522 137.747 57.5086C137.441 57.5152 137.137 57.4475 136.863 57.3111C136.589 57.1747 136.352 56.9738 136.172 56.7256C135.741 56.1061 135.526 55.3615 135.562 54.6075V54.6075ZM136.511 54.7156C136.484 55.2308 136.619 55.7416 136.897 56.1764C137.017 56.3487 137.178 56.4881 137.366 56.5816C137.554 56.675 137.762 56.7195 137.972 56.711C138.247 56.721 138.519 56.6488 138.753 56.5036C138.988 56.3585 139.173 56.1469 139.287 55.8959V53.3687C139.169 53.1241 138.983 52.9188 138.751 52.7778C138.52 52.6367 138.252 52.566 137.981 52.5741C137.77 52.5659 137.561 52.6109 137.373 52.7048C137.184 52.7988 137.023 52.9387 136.903 53.1116C136.607 53.5919 136.469 54.1529 136.508 54.7156H136.511Z" fill="white"/>
<path d="M145.252 57.5261C144.912 57.5388 144.572 57.4795 144.256 57.3521C143.94 57.2248 143.654 57.0322 143.418 56.787C142.931 56.2468 142.677 55.5356 142.714 54.8091V54.6338C142.707 54.1296 142.814 53.6303 143.026 53.173C143.22 52.7613 143.523 52.4106 143.903 52.1592C144.266 51.9203 144.692 51.7934 145.127 51.794C145.443 51.7767 145.758 51.8319 146.05 51.9555C146.341 52.079 146.6 52.2677 146.807 52.5069C147.208 52.9802 147.408 53.6619 147.406 54.552V54.9259H143.66C143.65 55.4113 143.821 55.8832 144.139 56.2494C144.285 56.4138 144.466 56.544 144.668 56.6308C144.87 56.7176 145.088 56.759 145.308 56.7519C145.605 56.7622 145.899 56.6915 146.158 56.5474C146.394 56.4088 146.601 56.2252 146.766 56.0069L147.35 56.4568C147.126 56.8048 146.814 57.0871 146.446 57.2749C146.077 57.4628 145.665 57.5495 145.252 57.5261ZM145.133 52.5594C144.952 52.5565 144.773 52.5923 144.607 52.6644C144.441 52.7364 144.293 52.8431 144.171 52.9772C143.89 53.3053 143.721 53.7149 143.689 54.1459H146.465V54.0728C146.465 53.6668 146.328 53.2727 146.076 52.9539C145.958 52.8225 145.812 52.7191 145.649 52.6509C145.486 52.5827 145.309 52.5515 145.133 52.5594V52.5594Z" fill="white"/>
<path d="M150.692 51.8845L150.722 52.5799C150.915 52.3249 151.167 52.1196 151.455 51.9809C151.744 51.8422 152.061 51.7741 152.381 51.7823C153.55 51.7823 154.14 52.4425 154.152 53.7631V57.4239H153.205V53.7573C153.226 53.441 153.128 53.1284 152.93 52.8808C152.819 52.7766 152.687 52.6969 152.543 52.6466C152.4 52.5963 152.247 52.5765 152.095 52.5886C151.806 52.5833 151.523 52.6691 151.286 52.834C151.059 52.9975 150.877 53.2143 150.754 53.4651V57.4122H149.807V51.8612L150.692 51.8845Z" fill="white"/>
<path d="M159.092 56.7519C159.411 56.7548 159.721 56.6463 159.968 56.4451C160.088 56.3531 160.187 56.2374 160.259 56.1051C160.332 55.9728 160.376 55.827 160.389 55.6768H161.283C161.262 56.0045 161.149 56.3196 160.956 56.5854C160.748 56.8769 160.471 57.1119 160.15 57.269C159.82 57.4393 159.454 57.5275 159.083 57.5261C158.746 57.5414 158.409 57.4814 158.098 57.3506C157.787 57.2197 157.509 57.0212 157.284 56.7694C156.811 56.1892 156.573 55.4537 156.615 54.7068V54.5461C156.604 54.0512 156.704 53.5601 156.907 53.1087C157.09 52.7064 157.386 52.3662 157.76 52.13C158.155 51.8914 158.61 51.7708 159.072 51.7823C159.64 51.7634 160.194 51.9631 160.62 52.3403C160.825 52.5248 160.989 52.75 161.102 53.0015C161.216 53.253 161.275 53.5253 161.277 53.8011H160.395C160.376 53.4674 160.23 53.1537 159.986 52.9246C159.866 52.81 159.724 52.7203 159.569 52.6606C159.414 52.601 159.249 52.5725 159.083 52.577C158.869 52.567 158.655 52.6091 158.46 52.6996C158.265 52.7902 158.095 52.9265 157.964 53.097C157.673 53.5413 157.533 54.0683 157.567 54.5987V54.7798C157.537 55.2967 157.675 55.8094 157.961 56.2406C158.094 56.411 158.267 56.5466 158.464 56.6356C158.661 56.7247 158.876 56.7646 159.092 56.7519V56.7519Z" fill="white"/>
<path d="M165.458 56.0361L166.749 51.8845H167.76L165.534 58.277C165.189 59.2002 164.643 59.6589 163.892 59.6589H163.714L163.36 59.5917V58.8116L163.615 58.8321C163.879 58.8469 164.142 58.7784 164.365 58.6363C164.581 58.4496 164.736 58.2022 164.81 57.9264L165.017 57.3625L163.042 51.8845H164.076L165.458 56.0361Z" fill="white"/>
<defs>
<linearGradient id="paint0_linear_33_15" x1="60.4179" y1="31.0521" x2="0" y2="31.0521" gradientUnits="userSpaceOnUse">
<stop stop-color="#00E6E3"/>
<stop offset="1" stop-color="#00FF68"/>
</linearGradient>
</defs>
</svg>
