<svg width="138" height="47" viewBox="0 0 138 47" fill="none" xmlns="http://www.w3.org/2000/svg">
<path d="M19.0209 1.42283C14.4865 4.89449 10.2717 8.76471 6.42677 12.9872C7.47848 15.0248 7.99006 16.0348 8.99786 18.0372C9.01311 18.0578 9.02634 18.0799 9.03738 18.1031C11.2374 22.5251 13.4133 26.9624 15.587 31.3976C16.4125 33.0839 17.4708 34.0785 18.4171 34.0675C19.2624 34.0675 20.2 33.2705 21.0058 31.896C21.7633 33.3934 22.1431 34.1422 22.9094 35.6286C22.3669 36.3155 21.677 36.8718 20.8908 37.2563C20.1045 37.6409 19.2419 37.844 18.3666 37.8506C15.475 37.8616 13.2706 35.6549 12.1508 33.1563C9.40625 27.4477 6.66171 21.7588 3.82714 16.0984C3.25042 16.8274 2.68175 17.5688 2.12113 18.3226C0.224107 21.2648 0.224107 25.4013 2.12113 28.3435C6.99586 34.6915 12.6795 40.3751 19.0275 45.2499C21.9697 47.1469 26.1062 47.1469 29.0484 45.2499C35.3964 40.3751 41.08 34.6915 45.9548 28.3435C47.8518 25.3991 47.8496 21.267 45.9548 18.3226C45.3927 17.5673 44.824 16.8318 44.2488 16.1072C41.4208 21.7698 38.6696 27.4674 35.9229 33.1695C34.8009 35.6615 32.5965 37.8725 29.7049 37.8616C27.2194 37.7496 25.1511 36.149 23.9304 34.0521C23.9292 34.0579 23.9292 34.0639 23.9304 34.0697C23.1268 32.4998 22.7272 31.716 21.9345 30.1483L21.4954 29.27C21.4761 29.2472 21.4585 29.223 21.4427 29.1976C21.2934 28.899 21.2231 28.7585 21.0673 28.4555C19.7835 25.9071 18.5108 23.3638 17.249 20.8256C16.5034 19.584 16.1024 18.1659 16.0876 16.7176C16.0854 16.6767 16.0854 16.6356 16.0876 16.5947C16.1139 12.2583 19.7455 8.85066 24.0292 8.84846C28.3699 8.84846 32.0125 12.3241 31.9708 16.7176C31.9708 16.7549 31.9708 16.7923 31.9708 16.8296C31.9377 18.1825 31.5688 19.5059 30.8971 20.6807C29.5797 23.1955 28.2697 25.7109 26.9669 28.2271C26.1414 26.6045 25.7308 25.7944 24.9118 24.1784C25.9635 22.0815 26.4861 21.032 27.5466 18.9308C27.5663 18.8957 27.5839 18.8605 27.6059 18.8254C27.9731 18.1936 28.1691 17.4769 28.1745 16.7462C28.1745 16.7198 28.1745 16.6935 28.1745 16.6671C28.164 15.5683 27.7175 14.5186 26.9331 13.749C26.1487 12.9794 25.0907 12.553 23.9918 12.5635C22.893 12.574 21.8433 13.0205 21.0738 13.8049C20.3042 14.5893 19.8777 15.6473 19.8882 16.7462C19.8882 16.7769 19.8882 16.8054 19.8882 16.834C19.9082 17.5714 20.1233 18.2904 20.5118 18.9176C20.5421 18.9667 20.5699 19.0173 20.5952 19.0691C21.4273 20.7224 21.8379 21.548 22.6635 23.1969H22.6459C23.7833 25.4453 24.9235 27.6928 26.0667 29.9397V29.9551C26.35 30.5216 26.4905 30.8026 26.7759 31.3691L26.7979 31.4086C27.6454 33.0531 28.7168 34.0434 29.6522 34.0565C30.5875 34.0697 31.659 33.0729 32.4846 31.3888C35.5035 25.2411 38.5225 19.0801 41.6469 12.9763C37.7992 8.75587 33.5806 4.88923 29.0418 1.42283C27.5361 0.492665 25.8012 0 24.0314 0C22.2615 0 20.5266 0.492665 19.0209 1.42283Z" fill="url(#paint0_linear_9_217)"/>
<path d="M65.7352 14.9151C65.8154 14.7115 65.9605 14.5402 66.148 14.4276C66.3385 14.3067 66.5592 14.2421 66.7848 14.241C66.943 14.2358 67.1004 14.2649 67.2463 14.3263C67.3922 14.3877 67.5231 14.48 67.6301 14.5967C67.829 14.8036 67.942 15.0782 67.9462 15.3652C67.9445 15.5184 67.9061 15.669 67.8343 15.8043C67.7628 15.9441 67.7068 16.0914 67.6674 16.2434C67.5774 16.5069 67.4215 16.9328 67.1975 17.5169C66.9736 18.1009 66.6794 18.887 66.3193 19.8618C65.9592 20.8367 65.5003 22.0574 64.9514 23.5351L66.675 28.2206L71.7249 14.9129C71.8028 14.708 71.9485 14.536 72.1377 14.4254C72.3281 14.3043 72.5488 14.2396 72.7744 14.2388C72.9323 14.234 73.0893 14.2632 73.2348 14.3246C73.3803 14.386 73.5109 14.478 73.6176 14.5945C73.8217 14.8015 73.9387 15.0789 73.9447 15.3695C73.9419 15.5226 73.9036 15.673 73.8327 15.8087C73.8064 15.8614 73.712 16.1161 73.5517 16.5793C73.3914 17.0426 73.0884 17.8616 72.6515 19.0341C72.2146 20.2065 71.6151 21.8028 70.8533 23.814C70.0914 25.8252 69.1099 28.3831 67.9111 31.4789C67.8204 31.736 67.6699 31.9677 67.472 32.1552C67.2317 32.3348 66.9373 32.4271 66.6375 32.4167C66.3376 32.4063 66.0503 32.2939 65.8231 32.0981C65.6333 31.9262 65.4834 31.7148 65.3839 31.4789C65.059 30.6007 64.7589 29.7575 64.4837 28.9495C64.2085 28.1415 63.9517 27.387 63.7131 26.6858C63.4393 27.3855 63.1583 28.1415 62.8699 28.9539C62.5816 29.7663 62.2632 30.6094 61.9148 31.4833C61.825 31.7408 61.6744 31.9727 61.4757 32.1596C61.2511 32.3478 60.9622 32.4414 60.6699 32.4208C60.5152 32.4274 60.3607 32.4025 60.2158 32.3478C60.0709 32.2931 59.9386 32.2097 59.8268 32.1025C59.6386 31.9291 59.489 31.7182 59.3877 31.4833C58.3382 28.6114 57.4511 26.1808 56.7266 24.1916C56.002 22.2024 55.4165 20.6032 54.97 19.3941C54.5221 18.1822 54.1979 17.3039 53.9974 16.7594C53.7954 16.2105 53.6966 15.9228 53.6966 15.8965C53.6002 15.6805 53.565 15.4422 53.5948 15.2075C53.6246 14.9729 53.7183 14.751 53.8656 14.5659C53.968 14.4565 54.0934 14.3712 54.2328 14.3162C54.3721 14.2611 54.5219 14.2377 54.6714 14.2476C54.9214 14.2417 55.1679 14.3064 55.3828 14.4342C55.5747 14.5422 55.7248 14.7115 55.8088 14.9151L60.6809 28.2228L62.4813 23.5C61.9807 22.1489 61.5555 20.9933 61.2056 20.0331C60.8565 19.0714 60.5711 18.2897 60.3428 17.6903C60.1144 17.0909 59.9563 16.6452 59.8575 16.3576C59.7977 16.2051 59.7478 16.0489 59.7082 15.8899C59.6287 15.7267 59.5895 15.5467 59.5941 15.3652C59.5829 15.0704 59.6842 14.7823 59.8773 14.5594C59.9793 14.4501 60.1043 14.3649 60.2433 14.3099C60.3823 14.2548 60.5317 14.2313 60.6809 14.241C60.9315 14.2352 61.1788 14.2999 61.3945 14.4276C61.582 14.5396 61.7265 14.7113 61.8051 14.9151L63.7131 20.3514L65.7352 14.9151Z" fill="white"/>
<path d="M92.9151 29.011C92.0571 29.9629 91.0501 30.769 89.9334 31.3977C88.7866 32.0563 87.4859 32.3995 86.1635 32.3923C83.7887 32.4113 81.5017 31.4957 79.7961 29.8432C78.9631 29.0311 78.301 28.0606 77.8486 26.9888C77.3647 25.8522 77.1218 24.6276 77.135 23.3924C77.1289 22.1775 77.3648 20.9736 77.8289 19.8508C78.2719 18.7658 78.9214 17.777 79.7413 16.9394C80.565 16.1062 81.5455 15.4443 82.6263 14.9919C83.7692 14.5077 84.9991 14.2626 86.2403 14.2717C87.4226 14.2681 88.5919 14.5174 89.6699 15.0029C91.8309 15.9595 93.5545 17.6917 94.5003 19.8574C94.989 20.9638 95.2389 22.1609 95.2336 23.3704V31.2747C95.2405 31.4316 95.2154 31.5883 95.1601 31.7353C95.1047 31.8823 95.0202 32.0166 94.9116 32.13C94.803 32.2435 94.6725 32.3338 94.528 32.3955C94.3836 32.4571 94.2281 32.4889 94.0711 32.4889C93.914 32.4889 93.7585 32.4571 93.6141 32.3955C93.4696 32.3338 93.3392 32.2435 93.2305 32.13C93.1219 32.0166 93.0374 31.8823 92.982 31.7353C92.9267 31.5883 92.9016 31.4316 92.9085 31.2747L92.9151 29.011ZM92.9151 23.388C92.9215 22.4829 92.7422 21.5862 92.3881 20.7532C91.7132 19.1247 90.4198 17.8305 88.7917 17.1546C87.9584 16.8017 87.0618 16.6231 86.1569 16.6298C85.262 16.6232 84.3754 16.8019 83.5529 17.1546C81.9354 17.8403 80.6508 19.132 79.974 20.7532C79.6206 21.5863 79.442 22.4831 79.4492 23.388C79.4426 24.2829 79.6213 25.1695 79.974 25.992C80.6604 27.6027 81.9427 28.8857 83.5529 29.5731C84.3688 29.9151 85.2441 30.0926 86.1288 30.0957C87.0135 30.0987 87.89 29.9271 88.7082 29.5907C90.3095 28.9192 91.591 27.6573 92.2871 26.0667C92.6576 25.2198 92.8675 24.3115 92.9063 23.388" fill="white"/>
<path d="M108.994 14.3157C109.912 14.2981 110.826 14.4469 111.692 14.7548C112.417 15.0172 113.109 15.3628 113.754 15.7845C114.252 16.1052 114.7 16.4973 115.084 16.9482C115.396 17.3347 115.554 17.6289 115.554 17.8265C115.554 17.9627 115.524 18.0973 115.465 18.2203C115.407 18.3433 115.322 18.4518 115.216 18.5379C115.014 18.7295 114.746 18.8371 114.467 18.8387C114.314 18.8415 114.162 18.813 114.02 18.7548C113.878 18.6967 113.749 18.6102 113.642 18.5005C113.007 17.9438 112.285 17.4944 111.505 17.17C110.684 16.8372 109.805 16.673 108.919 16.687C108.022 16.6762 107.133 16.8519 106.308 17.2029C104.69 17.8874 103.405 19.1785 102.727 20.7994C102.376 21.633 102.197 22.5294 102.203 23.4341C102.197 24.329 102.375 25.2154 102.727 26.0382C103.416 27.6463 104.699 28.9262 106.308 29.6105C107.968 30.3041 109.835 30.3104 111.499 29.628C112.292 29.2959 113.016 28.8194 113.635 28.2228C113.742 28.1128 113.871 28.026 114.013 27.9678C114.155 27.9096 114.307 27.8813 114.461 27.8847C114.76 27.8849 115.048 27.9987 115.267 28.2031C115.382 28.3031 115.474 28.4274 115.536 28.5671C115.598 28.7067 115.628 28.8583 115.624 29.011C115.624 29.2087 115.477 29.5029 115.185 29.8893C114.826 30.3432 114.389 30.7297 113.894 31.031C113.233 31.4457 112.521 31.7741 111.776 32.0081C110.847 32.2944 109.879 32.4329 108.908 32.4187C106.533 32.4389 104.246 31.5231 102.541 29.8695C101.707 29.0576 101.044 28.0871 100.591 27.0152C100.108 25.8783 99.8652 24.6539 99.8774 23.4188C99.8693 22.2398 100.096 21.071 100.543 19.9802C100.99 18.8894 101.65 17.8984 102.484 17.0646C103.315 16.2396 104.295 15.5782 105.371 15.1149C106.514 14.6194 107.741 14.3459 108.987 14.3091" fill="white"/>
<path d="M129.011 14.2717C130.192 14.2708 131.36 14.5224 132.436 15.0095C134.597 15.9661 136.321 17.6983 137.267 19.864C137.747 20.9663 137.996 22.155 138 23.3572C138.004 24.5594 137.762 25.7497 137.289 26.8549C136.824 27.9201 136.169 28.8918 135.357 29.7224C134.517 30.5734 133.516 31.2474 132.412 31.7045C131.308 32.1616 130.123 32.3925 128.928 32.3835C126.553 32.4014 124.267 31.486 122.56 29.8344C121.728 29.0217 121.066 28.0514 120.613 26.9801C119.9 25.3215 119.699 23.4876 120.037 21.7141C120.374 19.9406 121.234 18.3084 122.506 17.0273C123.337 16.2036 124.316 15.5431 125.391 15.0797C126.536 14.5845 127.764 14.3103 129.011 14.2717ZM128.937 16.6342C128.041 16.6274 127.154 16.8061 126.33 17.159C124.713 17.8454 123.428 19.1368 122.749 20.7576C122.399 21.5915 122.221 22.4878 122.227 23.3924C122.222 24.2869 122.399 25.1731 122.749 25.9964C123.438 27.6063 124.72 28.8889 126.33 29.5775C127.154 29.9286 128.041 30.1065 128.937 30.1001C129.841 30.1065 130.738 29.9287 131.571 29.5775C133.192 28.899 134.484 27.6139 135.17 25.9964C135.523 25.1739 135.701 24.2873 135.695 23.3924C135.702 22.4875 135.523 21.5907 135.17 20.7576C134.489 19.1295 133.19 17.8378 131.558 17.1656C130.725 16.8126 129.828 16.634 128.923 16.6408" fill="white"/>
<path d="M64.8635 43.1553V37.5454H66.4444C66.8958 37.5363 67.3414 37.6477 67.7354 37.8682C68.1095 38.0818 68.4115 38.4021 68.6027 38.7882C68.8132 39.213 68.9193 39.682 68.9123 40.1561V40.5139C68.9234 40.995 68.8187 41.4717 68.6071 41.9038C68.4132 42.2905 68.1071 42.6096 67.7288 42.8194C67.3245 43.0382 66.8712 43.1508 66.4115 43.1465L64.8635 43.1553ZM65.6013 38.158V42.5493H66.3785C66.6253 42.5632 66.8722 42.5229 67.1017 42.4311C67.3312 42.3393 67.5378 42.1982 67.7069 42.0179C68.023 41.6645 68.1833 41.1595 68.1833 40.5052V40.1802C68.217 39.6474 68.0572 39.1203 67.7332 38.696C67.5754 38.5165 67.3791 38.3749 67.159 38.2818C66.9389 38.1887 66.7007 38.1464 66.4619 38.158H65.6013Z" fill="white"/>
<path d="M70.8906 37.8879C70.8878 37.7808 70.9254 37.6765 70.996 37.5959C71.0827 37.5193 71.1943 37.4771 71.31 37.4771C71.4256 37.4771 71.5373 37.5193 71.624 37.5959C71.6967 37.6755 71.7361 37.78 71.7337 37.8879C71.7279 37.9706 71.6987 38.05 71.6496 38.1168C71.6005 38.1836 71.5335 38.2352 71.4563 38.2655C71.3791 38.2958 71.2949 38.3037 71.2135 38.2881C71.132 38.2726 71.0566 38.2343 70.996 38.1777C70.9248 38.0983 70.887 37.9945 70.8906 37.8879ZM71.6591 43.1574H70.9587V38.9857H71.6701L71.6591 43.1574Z" fill="white"/>
<path d="M73.5934 41.0387C73.5665 40.4904 73.7251 39.949 74.0435 39.5018C74.1862 39.3252 74.366 39.1821 74.5701 39.0826C74.7743 38.9832 74.9977 38.9298 75.2248 38.9262C75.4518 38.9227 75.6769 38.969 75.884 39.062C76.0912 39.155 76.2754 39.2924 76.4236 39.4645L76.4587 39.0034H77.1174V43.0653C77.1304 43.2992 77.0946 43.5332 77.0122 43.7524C76.9298 43.9717 76.8026 44.1714 76.6387 44.3388C76.465 44.4964 76.2614 44.6176 76.0401 44.6953C75.8187 44.773 75.584 44.8056 75.3499 44.7911C75.047 44.7897 74.7477 44.7246 74.4716 44.6C74.2072 44.4893 73.9791 44.3067 73.8129 44.0731L74.184 43.634C74.3129 43.8093 74.4812 43.9519 74.6753 44.0503C74.8695 44.1487 75.084 44.2001 75.3016 44.2004C75.4495 44.2086 75.5975 44.1867 75.7368 44.1362C75.876 44.0856 76.0036 44.0074 76.1118 43.9062C76.2132 43.796 76.2913 43.6665 76.3415 43.5254C76.3917 43.3843 76.4129 43.2345 76.4038 43.0851V42.7272C76.2584 42.8909 76.0782 43.02 75.8765 43.1051C75.6748 43.1902 75.4566 43.2291 75.2379 43.219C75.0077 43.2242 74.7798 43.1733 74.5736 43.0708C74.3674 42.9683 74.1893 42.8172 74.0545 42.6306C73.7297 42.1652 73.5677 41.6056 73.5934 41.0387ZM74.3092 41.12C74.2895 41.5068 74.3899 41.8903 74.5968 42.2178C74.6869 42.3472 74.8082 42.4518 74.9494 42.522C75.0906 42.5922 75.2472 42.6258 75.4048 42.6196C75.612 42.6275 75.817 42.5735 75.9933 42.4643C76.1697 42.3552 76.3096 42.196 76.395 42.007V40.1078C76.3063 39.9243 76.1665 39.7703 75.9924 39.6644C75.8183 39.5585 75.6173 39.505 75.4136 39.5106C75.2551 39.5043 75.0976 39.538 74.9557 39.6086C74.8137 39.6792 74.6918 39.7844 74.6012 39.9146C74.3819 40.2765 74.2814 40.698 74.3135 41.12H74.3092Z" fill="white"/>
<path d="M79.1593 37.8879C79.1564 37.7807 79.1941 37.6765 79.2647 37.5959C79.3054 37.5546 79.3545 37.5227 79.4087 37.5022C79.4629 37.4818 79.5209 37.4733 79.5787 37.4773C79.6368 37.4734 79.695 37.4819 79.7496 37.5024C79.8041 37.5228 79.8536 37.5547 79.8948 37.5959C79.967 37.6757 80.0056 37.7803 80.0024 37.8879C80.0064 37.9949 79.9677 38.0992 79.8948 38.1777C79.8531 38.2178 79.8034 38.2488 79.7489 38.2684C79.6944 38.2881 79.6364 38.2961 79.5787 38.2919C79.5212 38.2961 79.4636 38.288 79.4095 38.2684C79.3554 38.2487 79.306 38.2178 79.2647 38.1777C79.1934 38.0983 79.1557 37.9945 79.1593 37.8879ZM79.93 43.1574H79.2186V38.9857H79.93V43.1574Z" fill="white"/>
<path d="M83.0017 37.9846V38.9924H83.779V39.5435H83.0017V42.1278C82.9917 42.2614 83.029 42.3943 83.1071 42.5032C83.1531 42.5489 83.2087 42.5838 83.2698 42.6054C83.3309 42.6271 83.3961 42.6349 83.4606 42.6284C83.5746 42.6243 83.6878 42.6088 83.7987 42.5823V43.1553C83.6207 43.205 83.4368 43.2309 83.252 43.2322C83.1182 43.2419 82.9838 43.2209 82.8594 43.1707C82.7349 43.1204 82.6236 43.0423 82.534 42.9424C82.3577 42.7072 82.2712 42.4167 82.2903 42.1234V39.5435H81.5328V38.9924H82.2903V37.9846H83.0017Z" fill="white"/>
<path d="M88.1482 43.1553C88.0936 43.0147 88.0603 42.8667 88.0494 42.7162C87.899 42.8806 87.7157 43.0115 87.5115 43.1004C87.3072 43.1893 87.0865 43.2342 86.8637 43.2322C86.4952 43.2467 86.1346 43.1221 85.8537 42.8831C85.7274 42.7748 85.6267 42.6399 85.5587 42.488C85.4908 42.3362 85.4573 42.1711 85.4607 42.0048C85.4527 41.8087 85.4936 41.6136 85.5799 41.4373C85.6661 41.2609 85.7949 41.1089 85.9547 40.9948C86.3689 40.7324 86.8552 40.6071 87.3446 40.6369H88.0384V40.3098C88.0445 40.2009 88.0281 40.0918 87.9903 39.9895C87.9526 39.8871 87.8942 39.7936 87.8188 39.7148C87.729 39.6365 87.6245 39.5768 87.5114 39.5391C87.3984 39.5014 87.279 39.4865 87.1601 39.4952C86.9323 39.487 86.7083 39.555 86.5234 39.6884C86.4451 39.7385 86.3804 39.8073 86.3352 39.8885C86.29 39.9697 86.2656 40.0609 86.2643 40.1539H85.5485C85.5524 39.9345 85.6297 39.7226 85.7681 39.5523C85.9254 39.3501 86.1317 39.1913 86.3675 39.0912C86.6306 38.9767 86.9149 38.9191 87.2019 38.9221C87.6089 38.8988 88.0102 39.0271 88.3282 39.2822C88.4655 39.4074 88.5744 39.5606 88.6475 39.7314C88.7206 39.9022 88.7562 40.0867 88.752 40.2725V42.1892C88.7399 42.4995 88.7891 42.8092 88.8969 43.1004V43.1619L88.1482 43.1553ZM86.9669 42.613C87.1907 42.6121 87.4103 42.5523 87.6037 42.4395C87.7907 42.3405 87.9437 42.1875 88.0428 42.0004V41.1463H87.4829C86.6046 41.1463 86.1692 41.4017 86.1765 41.9126C86.1719 42.0105 86.1892 42.1083 86.2272 42.1987C86.2652 42.2891 86.3229 42.3699 86.3961 42.4352C86.5591 42.5606 86.7615 42.6237 86.9669 42.613Z" fill="white"/>
<path d="M91.5976 43.1553H90.895V37.2468H91.5976V43.1553Z" fill="white"/>
<path d="M99.8378 41.6886H97.4906L96.9637 43.1553H96.2084L98.3425 37.5454H98.988L101.131 43.1465H100.38L99.8378 41.6886ZM97.7146 41.0848H99.6182L98.6653 38.4654L97.7146 41.0848Z" fill="white"/>
<path d="M102.576 41.0387C102.549 40.4904 102.707 39.949 103.026 39.5018C103.169 39.3252 103.348 39.1821 103.552 39.0826C103.757 38.9832 103.98 38.9298 104.207 38.9262C104.434 38.9227 104.659 38.969 104.866 39.062C105.073 39.155 105.258 39.2924 105.406 39.4645L105.441 39.0034H106.1V43.0653C106.112 43.2991 106.076 43.533 105.994 43.7522C105.912 43.9714 105.785 44.1711 105.621 44.3388C105.447 44.4964 105.244 44.6176 105.022 44.6953C104.801 44.773 104.566 44.8056 104.332 44.7911C104.029 44.7902 103.73 44.7251 103.454 44.6C103.19 44.4893 102.961 44.3067 102.795 44.0731L103.164 43.634C103.293 43.8095 103.462 43.9521 103.657 44.0505C103.851 44.1489 104.066 44.2003 104.284 44.2004C104.432 44.2086 104.58 44.1867 104.719 44.1362C104.858 44.0856 104.986 44.0074 105.094 43.9062C105.195 43.7959 105.273 43.6663 105.323 43.5252C105.373 43.3841 105.393 43.2344 105.384 43.0851V42.7272C105.239 42.8909 105.058 43.02 104.857 43.1051C104.655 43.1902 104.437 43.2291 104.218 43.219C103.988 43.224 103.76 43.173 103.554 43.0705C103.348 42.968 103.17 42.8171 103.035 42.6306C102.71 42.165 102.549 41.6054 102.576 41.0387ZM103.289 41.12C103.269 41.5072 103.37 41.891 103.579 42.2178C103.669 42.3473 103.79 42.4521 103.932 42.5223C104.073 42.5925 104.229 42.626 104.387 42.6196C104.594 42.6271 104.798 42.5728 104.974 42.4637C105.15 42.3546 105.29 42.1956 105.375 42.007V40.1078C105.287 39.924 105.147 39.7697 104.973 39.6637C104.799 39.5577 104.597 39.5045 104.394 39.5106C104.236 39.5044 104.078 39.5382 103.937 39.6088C103.795 39.6795 103.674 39.7846 103.583 39.9146C103.361 40.2755 103.258 40.6971 103.287 41.12H103.289Z" fill="white"/>
<path d="M109.859 43.232C109.603 43.2416 109.348 43.197 109.11 43.1013C108.872 43.0056 108.658 42.8608 108.48 42.6766C108.114 42.2706 107.923 41.7361 107.951 41.1901V41.0584C107.946 40.6794 108.026 40.3043 108.185 39.9606C108.331 39.6512 108.559 39.3876 108.844 39.1987C109.117 39.0192 109.437 38.9237 109.764 38.9242C110.002 38.9112 110.239 38.9527 110.458 39.0456C110.676 39.1384 110.871 39.2802 111.027 39.46C111.328 39.8156 111.478 40.328 111.477 40.9969V41.2779H108.662C108.654 41.6427 108.782 41.9973 109.022 42.2726C109.132 42.3961 109.267 42.4939 109.419 42.5592C109.571 42.6244 109.735 42.6555 109.9 42.6502C110.123 42.6579 110.344 42.6048 110.539 42.4965C110.717 42.3923 110.872 42.2543 110.996 42.0903L111.435 42.4284C111.267 42.6899 111.032 42.9021 110.755 43.0433C110.478 43.1844 110.169 43.2496 109.859 43.232ZM109.769 39.4995C109.633 39.4973 109.498 39.5242 109.373 39.5783C109.249 39.6325 109.137 39.7126 109.046 39.8134C108.835 40.06 108.708 40.3678 108.684 40.6917H110.77V40.6368C110.77 40.3317 110.667 40.0355 110.478 39.7959C110.389 39.6972 110.279 39.6194 110.156 39.5682C110.034 39.5169 109.901 39.4935 109.769 39.4995Z" fill="white"/>
<path d="M113.947 38.9924L113.969 39.5149C114.114 39.3233 114.303 39.169 114.52 39.0648C114.737 38.9606 114.976 38.9094 115.216 38.9155C116.094 38.9155 116.538 39.4117 116.547 40.4042V43.1553H115.835V40.3998C115.851 40.1621 115.778 39.9271 115.629 39.7411C115.545 39.6628 115.446 39.6029 115.338 39.5651C115.23 39.5273 115.115 39.5124 115.001 39.5215C114.784 39.5175 114.571 39.582 114.393 39.706C114.223 39.8288 114.085 39.9917 113.993 40.1802V43.1465H113.282V38.9748L113.947 38.9924Z" fill="white"/>
<path d="M120.259 42.6502C120.499 42.6524 120.732 42.5709 120.918 42.4197C121.008 42.3506 121.082 42.2635 121.137 42.1642C121.191 42.0648 121.224 41.9551 121.234 41.8423H121.906C121.891 42.0886 121.805 42.3254 121.66 42.5251C121.504 42.7442 121.296 42.9208 121.054 43.0389C120.807 43.1668 120.532 43.2331 120.253 43.2321C119.999 43.2436 119.746 43.1985 119.513 43.1001C119.279 43.0018 119.069 42.8526 118.9 42.6634C118.546 42.2274 118.366 41.6746 118.398 41.1133V40.9925C118.389 40.6206 118.464 40.2516 118.617 39.9123C118.755 39.6099 118.977 39.3543 119.258 39.1768C119.555 38.9975 119.897 38.9068 120.244 38.9155C120.671 38.9013 121.088 39.0513 121.408 39.3348C121.562 39.4735 121.685 39.6427 121.77 39.8318C121.855 40.0208 121.9 40.2254 121.902 40.4327H121.239C121.224 40.1818 121.114 39.9461 120.931 39.774C120.841 39.6878 120.735 39.6204 120.618 39.5756C120.502 39.5307 120.378 39.5094 120.253 39.5127C120.092 39.5052 119.931 39.5368 119.784 39.6049C119.638 39.6729 119.51 39.7754 119.412 39.9035C119.193 40.2374 119.088 40.6335 119.113 41.0321V41.1682C119.09 41.5566 119.194 41.9419 119.41 42.266C119.51 42.3941 119.639 42.4959 119.787 42.5628C119.935 42.6298 120.097 42.6598 120.259 42.6502Z" fill="white"/>
<path d="M125.044 42.1122L126.014 38.9922H126.774L125.101 43.7962C124.842 44.4901 124.431 44.8348 123.867 44.8348H123.733L123.467 44.7843V44.198L123.658 44.2134C123.857 44.2245 124.054 44.1731 124.223 44.0663C124.385 43.926 124.501 43.7401 124.556 43.5328L124.712 43.109L123.228 38.9922H124.005L125.044 42.1122Z" fill="white"/>
<defs>
<linearGradient id="paint0_linear_9_217" x1="46.1037" y1="23.3363" x2="0.698364" y2="23.3363" gradientUnits="userSpaceOnUse">
<stop stop-color="#00E6E3"/>
<stop offset="1" stop-color="#00FF68"/>
</linearGradient>
</defs>
</svg>
