<?xml version="1.0" encoding="UTF-8" standalone="no"?>
<svg
   width="199.57274"
   height="43.147846"
   viewBox="0 0 199.57274 43.147847"
   fill="none"
   version="1.1"
   id="svg45"
   sodipodi:docname="name-welcome.svg"
   inkscape:version="1.1 (c68e22c387, 2021-05-23)"
   xmlns:inkscape="http://www.inkscape.org/namespaces/inkscape"
   xmlns:sodipodi="http://sodipodi.sourceforge.net/DTD/sodipodi-0.dtd"
   xmlns="http://www.w3.org/2000/svg"
   xmlns:svg="http://www.w3.org/2000/svg">
  <sodipodi:namedview
     id="namedview47"
     pagecolor="#ffffff"
     bordercolor="#666666"
     borderopacity="1.0"
     inkscape:pageshadow="2"
     inkscape:pageopacity="0.0"
     inkscape:pagecheckerboard="true"
     showgrid="false"
     fit-margin-top="0"
     fit-margin-left="0"
     fit-margin-right="0"
     fit-margin-bottom="0"
     inkscape:zoom="4.3817437"
     inkscape:cx="176.07146"
     inkscape:cy="30.010884"
     inkscape:window-width="1360"
     inkscape:window-height="705"
     inkscape:window-x="-8"
     inkscape:window-y="-8"
     inkscape:window-maximized="1"
     inkscape:current-layer="svg45" />
  <path
     d="m 28.726524,1.5999396 c 0.1894,-0.4811382 0.532485,-0.8862323 0.975958,-1.15238625 0.450222,-0.28569792 0.972047,-0.43867423 1.505244,-0.44116165 0.374179,-0.01225943 0.746404,0.05667764 1.091266,0.20183634 0.345041,0.14515873 0.654546,0.3631633 0.907198,0.63908921 0.4703,0.48913345 0.73752,1.13835005 0.747469,1.81688255 -0.0041,0.3620974 -0.09469,0.7181536 -0.264733,1.0381424 -0.168967,0.3304716 -0.301155,0.6787103 -0.394433,1.0381425 -0.212852,0.6229211 -0.581344,1.6299708 -1.11081,3.0106663 -0.529466,1.3808735 -1.225055,3.239153 -2.076463,5.543926 -0.851231,2.304595 -1.9361,5.19089 -3.233824,8.684292 L 30.948145,33.056561 42.887229,1.5947869 c 0.184068,-0.484336 0.528576,-0.89102928 0.975956,-1.15238604 0.450045,-0.28623096 0.97187,-0.43920727 1.505244,-0.44116168 0.373291,-0.01154873 0.744448,0.05774369 1.088423,0.20290239 0.343976,0.14498104 0.652593,0.36263029 0.904888,0.63802317 0.48256,0.48948866 0.759373,1.14510156 0.77341,1.83234016 -0.0065,0.3619196 -0.09719,0.7172653 -0.264732,1.0381424 -0.06218,0.1245491 -0.285521,0.726682 -0.664319,1.822035 -0.378975,1.0951755 -1.095353,3.0314545 -2.128343,5.8033277 -1.03299,2.772052 -2.450109,6.545645 -4.251354,11.300526 -1.801249,4.754881 -4.121478,10.802154 -6.955716,18.121386 -0.214451,0.607642 -0.57033,1.155584 -1.038142,1.5987 -0.568022,0.424816 -1.264142,0.642998 -1.97288,0.61848 -0.708914,-0.02452 -1.388156,-0.290318 -1.92544,-0.753334 -0.448625,-0.406515 -0.803082,-0.906131 -1.038143,-1.463846 -0.768256,-2.076462 -1.477705,-4.069597 -2.128342,-5.979937 -0.650639,-1.910159 -1.257924,-3.694171 -1.822036,-5.351682 -0.647084,1.654134 -1.311581,3.441523 -1.993311,5.362167 -0.681732,1.920466 -1.434353,3.913777 -2.258045,5.979757 -0.212317,0.608707 -0.568554,1.157184 -1.038142,1.598877 -0.530886,0.444894 -1.213862,0.666452 -1.905009,0.617592 -0.365829,0.01546 -0.730945,-0.04317 -1.073499,-0.17252 C 15.335144,42.68483 15.022261,42.487435 14.757885,42.234075 14.312991,41.82436 13.959425,41.325632 13.719743,40.770227 11.238541,33.980638 9.1414687,28.234342 7.4283471,23.531342 5.7154033,18.828519 4.3311541,15.047819 3.2757773,12.189419 2.2168471,9.3240886 1.450189,7.2476264 0.97615777,5.9603866 0.49857314,4.6626642 0.26511101,3.9825325 0.26511101,3.9203469 0.03715675,3.4097152 -0.04617181,2.8463145 0.02436431,2.2914422 0.09472276,1.7367475 0.31628079,1.2120796 0.66469725,0.77464907 0.90668761,0.51595741 1.2032237,0.31429874 1.5326291,0.18424221 1.8620346,0.05400801 2.2163141,-0.0014259 2.5697055,0.02202691 3.1606454,0.00816842 3.7435899,0.16096707 4.2515566,0.46318859 4.7053331,0.71850444 5.0599681,1.1188014 5.2586063,1.5999396 L 16.777138,33.061891 21.033646,21.896218 C 19.850167,18.702194 18.844894,15.97012 18.017826,13.699816 17.19236,11.426314 16.517558,9.5783383 15.977787,8.1612201 15.437839,6.7441015 15.064194,5.6903238 14.830552,5.0103698 14.689126,4.6498716 14.571328,4.2804897 14.477695,3.9047117 14.28954,3.5188061 14.196972,3.0932797 14.207632,2.6641998 14.181331,1.9671894 14.420661,1.2861692 14.877281,0.75901386 15.11856,0.50085523 15.414032,0.29937421 15.742725,0.16914002 16.071243,0.03908349 16.424457,-0.0165281 16.777138,0.0063917 c 0.592538,-0.01368082 1.177082,0.13911783 1.687002,0.44116165 0.443296,0.26491022 0.785137,0.67053735 0.970805,1.15238625 l 4.510758,12.8526754 z"
     fill="#ffffff"
     id="path4"
     style="stroke-width:1.77673" />
  <path
     d="m 92.984931,34.925323 c -2.02902,2.250582 -4.409841,4.156302 -7.050061,5.642535 -2.711287,1.557126 -5.786804,2.368557 -8.912069,2.3515 -5.614462,0.04495 -11.021047,-2.119636 -15.05422,-6.026662 -1.968615,-1.919933 -3.533913,-4.214223 -4.603504,-6.748193 -1.144212,-2.687124 -1.718097,-5.582303 -1.687893,-8.502535 -0.0142,-2.872258 0.543681,-5.718576 1.639922,-8.372832 1.04827,-2.565418 2.583361,-4.9028813 4.521773,-6.8832229 1.947294,-1.9698592 4.265926,-3.5348013 6.820862,-4.6042142 2.702402,-1.14474627 5.609131,-1.72413742 8.544286,-1.70263902 2.794793,-0.0085284 5.559384,0.58081254 8.108992,1.72857912 5.108089,2.2615977 9.182133,6.3569569 11.419024,11.476955 1.15488,2.615879 1.746538,5.44585 1.734093,8.305494 v 18.687097 c 0.016,0.37098 -0.04267,0.741429 -0.174117,1.088957 -0.13148,0.347529 -0.330467,0.664852 -0.588093,0.933138 -0.255857,0.268286 -0.565,0.481669 -0.906134,0.627539 -0.341133,0.145693 -0.708915,0.221026 -1.080261,0.221026 -0.371337,0 -0.739109,-0.07533 -1.080242,-0.221026 -0.341134,-0.14587 -0.650286,-0.359253 -0.907912,-0.627539 -0.255844,-0.268286 -0.456616,-0.585609 -0.586316,-0.933138 -0.131474,-0.347528 -0.190111,-0.717977 -0.174116,-1.088957 z m 0,-13.293837 C 92.999153,19.491772 92.576277,17.37178 91.737659,15.402455 90.142164,11.552283 87.084411,8.49258 83.236021,6.8945903 81.265627,6.0604162 79.145992,5.6382658 77.006811,5.6540785 74.890727,5.638443 72.794186,6.0607716 70.850446,6.8945903 67.026927,8.5158551 63.98872,11.569695 62.389665,15.402455 c -0.835063,1.96968 -1.257923,4.089672 -1.240156,6.229031 -0.01598,2.115727 0.405093,4.211912 1.240156,6.156363 1.622153,3.807886 4.653251,6.841294 8.460781,8.46629 1.929526,0.80859 3.997639,1.228429 6.090625,1.235537 2.09121,0.0071 4.162875,-0.398699 6.097732,-1.193961 3.786213,-1.587508 6.815531,-4.570636 8.460787,-8.331257 0.875917,-2.002197 1.371627,-4.149549 1.46402,-6.332972"
     fill="#ffffff"
     id="path6"
     style="stroke-width:1.77673" />
  <path
     d="m 130.99627,0.18282083 c 2.17293,-0.0413978 4.33342,0.31039447 6.38022,1.03832017 1.71276,0.6202558 3.34913,1.4371957 4.87358,2.4344733 1.17796,0.7581301 2.23866,1.6850494 3.14656,2.7510864 0.73735,0.9135937 1.11047,1.6091829 1.11047,2.0764624 0,0.3219438 -0.0712,0.639978 -0.20966,0.9310056 -0.13859,0.290851 -0.33934,0.5474109 -0.58986,0.7506683 -0.47796,0.453243 -1.11048,0.707494 -1.76964,0.711224 -0.36244,0.0067 -0.72311,-0.06076 -1.05892,-0.198283 -0.3358,-0.137341 -0.63962,-0.34202 -0.89371,-0.601067 -1.50132,-1.3162004 -3.20699,-2.3786841 -5.04945,-3.1456977 -1.94196,-0.7867353 -4.02073,-1.1749505 -6.1155,-1.1420812 -2.11963,-0.025229 -4.2215,0.3901697 -6.17235,1.2199019 -3.82531,1.618422 -6.86352,4.670485 -8.46611,8.502712 -0.83151,1.970748 -1.25259,4.090027 -1.24015,6.229031 -0.0142,2.11555 0.40864,4.211202 1.24015,6.156364 1.62747,3.801844 4.66035,6.82779 8.46611,8.445502 3.92302,1.63992 8.33818,1.654844 12.27186,0.04157 1.87446,-0.785137 3.58721,-1.911583 5.05124,-3.322126 0.2523,-0.260114 0.55611,-0.465504 0.89191,-0.603023 0.33581,-0.137518 0.6965,-0.204323 1.05892,-0.196506 0.70715,5.33e-4 1.38943,0.269708 1.90467,0.7528 0.27363,0.236484 0.49038,0.530354 0.63785,0.860647 0.1457,0.330117 0.21676,0.688484 0.20965,1.049513 0,0.46728 -0.34825,1.16287 -1.03939,2.076464 -0.84927,1.072965 -1.88333,1.986914 -3.05241,2.699205 -1.56353,0.980399 -3.24787,1.756653 -5.00862,2.309924 -2.19425,0.676757 -4.48268,1.004386 -6.77821,0.970629 -5.61623,0.04779 -11.02282,-2.117151 -15.05422,-6.026486 -1.97039,-1.919755 -3.53746,-4.214045 -4.60883,-6.748194 -1.14244,-2.687834 -1.71633,-5.582479 -1.68789,-8.50271 -0.0196,-2.787153 0.51525,-5.550499 1.57419,-8.129243 1.05715,-2.578922 2.61711,-4.9218932 4.58751,-6.8929957 1.96683,-1.9506702 4.28191,-3.5141912 6.82619,-4.6095443 2.7024,-1.17139715 5.6038,-1.81794867 8.54962,-1.90500837"
     fill="#ffffff"
     id="path8"
     style="stroke-width:1.77673" />
  <path
     d="m 178.32298,0.07905988 c 2.79123,-0.0021321 5.55227,0.59253894 8.09654,1.74421442 5.10987,2.2615976 9.1839,6.356779 11.42081,11.4769547 1.13355,2.605928 1.72343,5.416356 1.73232,8.258412 0.008,2.842231 -0.56323,5.656214 -1.68079,8.269249 -1.09803,2.518336 -2.64734,4.815466 -4.56797,6.779284 -1.98462,2.011969 -4.35121,3.605515 -6.96123,4.686123 -2.61178,1.080606 -5.41191,1.626416 -8.23691,1.605273 -5.61446,0.04212 -11.02104,-2.122125 -15.05422,-6.026662 -1.96861,-1.921356 -3.53213,-4.215288 -4.60528,-6.748193 -1.68433,-3.921062 -2.15871,-8.256634 -1.36097,-12.449536 0.79597,-4.192901 2.82854,-8.0517775 5.83654,-11.0805664 1.96686,-1.9471168 4.28017,-3.5088612 6.82088,-4.6043919 2.70773,-1.17086411 5.61091,-1.81901464 8.56028,-1.91016082 z M 178.1453,5.6643836 c -2.11786,-0.016167 -4.2144,0.4063377 -6.16168,1.2406894 -3.82353,1.6226864 -6.86175,4.675994 -8.46612,8.507864 -0.82796,1.971458 -1.24905,4.090383 -1.23483,6.229031 -0.0126,2.114841 0.40864,4.20996 1.23483,6.156366 1.62924,3.80593 4.66035,6.838271 8.46612,8.466288 1.94728,0.830087 4.04559,1.250639 6.16168,1.235359 2.13918,0.01528 4.25881,-0.405095 6.2292,-1.235359 3.83241,-1.604031 6.88483,-4.642414 8.50875,-8.466288 0.8333,-1.944631 1.25614,-4.040637 1.24017,-6.156366 0.0178,-2.139359 -0.4051,-4.259527 -1.24017,-6.229031 -1.61149,-3.849282 -4.68168,-6.9031226 -8.53895,-8.4922287 -1.97039,-0.8345293 -4.09002,-1.2568577 -6.2292,-1.2406895"
     fill="#ffffff"
     id="path10"
     style="stroke-width:1.77673" />
  <defs
     id="defs43">
    <linearGradient
       id="paint0_linear_33_15"
       x1="60.4179"
       y1="31.052099"
       x2="0"
       y2="31.052099"
       gradientUnits="userSpaceOnUse">
      <stop
         stop-color="#00E6E3"
         id="stop38" />
      <stop
         offset="1"
         stop-color="#00FF68"
         id="stop40" />
    </linearGradient>
  </defs>
</svg>
