<?xml version="1.0" encoding="UTF-8" standalone="no"?>
<svg
   width="159"
   height="475"
   viewBox="0 0 159 475"
   fill="none"
   version="1.1"
   id="svg4"
   sodipodi:docname="bg-gradient-right.svg"
   inkscape:version="1.1 (c68e22c387, 2021-05-23)"
   xmlns:inkscape="http://www.inkscape.org/namespaces/inkscape"
   xmlns:sodipodi="http://sodipodi.sourceforge.net/DTD/sodipodi-0.dtd"
   xmlns="http://www.w3.org/2000/svg"
   xmlns:svg="http://www.w3.org/2000/svg">
  <defs
     id="defs8" />
  <sodipodi:namedview
     id="namedview6"
     pagecolor="#ffffff"
     bordercolor="#666666"
     borderopacity="1.0"
     inkscape:pageshadow="2"
     inkscape:pageopacity="0"
     inkscape:pagecheckerboard="true"
     showgrid="false"
     inkscape:zoom="2.8952404"
     inkscape:cx="32.639777"
     inkscape:cy="187.72189"
     inkscape:window-width="1360"
     inkscape:window-height="705"
     inkscape:window-x="-8"
     inkscape:window-y="-8"
     inkscape:window-maximized="1"
     inkscape:current-layer="svg4" />
  <path
     opacity="0.4"
     d="m 112.64305,202.29599 c -0.7126,0 -1.4252,-0.018 -2.1561,-0.055 -8.2589,-0.454 -15.951503,-3.455 -20.556003,-8.038 l -36.14212,-35.9912 c -4.56802,-4.5466 -7.053015,-11.9667 -6.797206,-20.3325 0.255809,-8.1113 3.106246,-15.6587 7.655986,-20.1689 l 14.63594,-14.5675 c 0.4202,-0.4182 1.0963,-0.4182 1.5166,0 0.4202,0.4183 0.4202,1.0912 0,1.5095 l -14.63596,14.5675 c -4.16602,4.1465 -6.77893,11.1483 -7.01646,18.7139 -0.23754,7.6747 2.06474,14.6766 6.15768,18.7503 l 36.16034,35.9909 c 4.2392,4.22 11.401803,7.002 19.149103,7.42 7.8388,0.419 14.91,-1.709 18.9299,-5.71 l 15.0744,-15.004 c 0.4203,-0.418 1.0964,-0.418 1.5166,0 0.4203,0.418 0.4203,1.091 0,1.509 l -15.0744,15.004 c -4.1112,4.129 -10.744,6.402 -18.4183,6.402 z m 46.9406,-35.6274 c -0.274,0 -0.548,-0.1092 -0.767,-0.3092 -0.42,-0.4183 -0.42,-1.0912 0,-1.5095 l 7.327,-7.2928 c 4.056,-4.0374 6.56,-10.6755 6.669,-17.7319 0.128,-7.2564 -2.192,-13.7854 -6.34,-17.9319 l -37.8781,-37.700725 c -4.1477,-4.12835 -11.0545,-6.65628 -18.473,-6.74721 -7.4002,-0.09093 -14.215703,2.21876 -18.235503,6.2198 l -9.4649,9.42064 c -0.4203,0.4183 -1.0963,0.4183 -1.5166,0 -0.4203,-0.4183 -0.4203,-1.0912 0,-1.5095 l 9.4649,-9.42063 c 4.4036,-4.40114 11.803803,-6.965442 19.770403,-6.856323 8.0945,0.10912 15.3668,2.800733 19.9713,7.365553 l 37.8775,37.700695 c 4.568,4.5466 7.108,11.6394 6.98,19.4778 -0.128,7.602 -2.868,14.7857 -7.308,19.2232 l -7.328,7.2928 c -0.2,0.2 -0.475,0.3092 -0.749,0.3092 z"
     fill="#ffffff"
     id="path2" />
  <g
     style="fill:none"
     id="g27"
     transform="translate(3.2105093,244.45043)">
    <path
       opacity="0.4"
       d="m 42.0695,81 c -0.4565,0 -0.913,-0.0116 -1.3813,-0.0348 -5.2909,-0.29 -10.2189,-2.2039 -13.1687,-5.1269 L 4.36597,52.8833 C 1.43959,49.9835 -0.152363,45.251 0.0115146,39.9153 0.175392,34.742 2.00145,29.9283 4.91613,27.0517 l 9.37617,-9.291 c 0.2692,-0.2668 0.7023,-0.2668 0.9715,0 0.2692,0.2667 0.2692,0.6959 0,0.9627 l -9.37611,9.291 C 3.21883,30.6591 1.54494,35.1248 1.39277,39.9501 1.2406,44.845 2.71549,49.3107 5.33753,51.909 L 28.5028,74.864 c 2.7157,2.691 7.3042,4.4657 12.2674,4.7325 5.0216,0.2668 9.5517,-1.0903 12.1269,-3.6422 l 9.6571,-9.5694 c 0.2692,-0.2668 0.7023,-0.2668 0.9715,0 0.2692,0.2668 0.2692,0.6959 0,0.9627 l -9.657,9.5695 C 51.2349,79.5501 46.9858,81 42.0695,81 Z M 72.141,58.277 c -0.1756,0 -0.3512,-0.0696 -0.4916,-0.1972 -0.2693,-0.2668 -0.2693,-0.696 0,-0.9627 l 4.6939,-4.6514 c 2.5986,-2.575 4.2023,-6.8087 4.2725,-11.3093 0.0819,-4.6281 -1.4047,-8.7922 -4.0618,-11.4369 L 52.2884,5.67419 C 49.6313,3.04115 45.2066,1.42885 40.4541,1.37085 35.7134,1.31286 31.3472,2.78597 28.772,5.33781 l -6.0635,6.00839 c -0.2692,0.2668 -0.7023,0.2668 -0.9715,0 -0.2692,-0.2667 -0.2692,-0.6959 0,-0.9627 L 27.8004,4.37507 C 30.6215,1.56804 35.3622,-0.0674607 40.4658,0.00213504 45.6514,0.0717308 50.3102,1.78843 53.26,4.69985 L 77.5255,28.7452 c 2.9264,2.8998 4.5535,7.4235 4.4715,12.4228 -0.0819,4.8485 -1.8377,9.4303 -4.6822,12.2605 l -4.6939,4.6513 c -0.1287,0.1276 -0.3043,0.1972 -0.4799,0.1972 z"
       fill="#ffffff"
       id="path18" />
  </g>
</svg>
