<?xml version="1.0" encoding="UTF-8" standalone="no"?>
<svg
   width="107"
   height="475"
   viewBox="0 0 107 475"
   fill="none"
   version="1.1"
   id="svg4"
   sodipodi:docname="bg-gradient.svg"
   inkscape:version="1.1 (c68e22c387, 2021-05-23)"
   xmlns:inkscape="http://www.inkscape.org/namespaces/inkscape"
   xmlns:sodipodi="http://sodipodi.sourceforge.net/DTD/sodipodi-0.dtd"
   xmlns="http://www.w3.org/2000/svg"
   xmlns:svg="http://www.w3.org/2000/svg">
  <defs
     id="defs8" />
  <sodipodi:namedview
     id="namedview6"
     pagecolor="#ffffff"
     bordercolor="#666666"
     borderopacity="1.0"
     inkscape:pageshadow="2"
     inkscape:pageopacity="0.0"
     inkscape:pagecheckerboard="true"
     showgrid="false"
     width="15px"
     inkscape:zoom="1.4476202"
     inkscape:cx="26.595374"
     inkscape:cy="287.0228"
     inkscape:window-width="1360"
     inkscape:window-height="705"
     inkscape:window-x="-8"
     inkscape:window-y="-8"
     inkscape:window-maximized="1"
     inkscape:current-layer="svg4" />
  <path
     d="m -3.6595682,173.62826 c 0.7126,0 1.4252,-0.018 2.1561,-0.055 8.2588988,-0.454 15.9514982,-3.455 20.5559992,-8.038 l 36.142121,-35.99121 c 4.56798,-4.5466 7.05298,-11.9667 6.79718,-20.3325 -0.2558,-8.1113 -3.1062,-15.658697 -7.65596,-20.168897 l -14.63591,-14.5675 c -0.42026,-0.4182 -1.09632,-0.4182 -1.51658,0 -0.42025,0.4183 -0.42025,1.0912 0,1.5095 l 14.63591,14.5675 c 4.16602,4.1465 6.77894,11.148297 7.01644,18.713897 0.2376,7.6747 -2.06472,14.6766 -6.15766,18.7503 l -36.160341,35.99091 c -4.239201,4.22 -11.4018004,7.002 -19.1490992,7.42 -7.8387995,0.419 -14.9099998,-1.709 -18.9298998,-5.71 l -15.0744,-15.004 c -0.4203,-0.418 -1.0964,-0.418 -1.5166,0 -0.4203,0.418 -0.4203,1.091 0,1.509 l 15.0744,15.004 c 4.1112,4.129 10.744,6.402 18.4182998,6.402 z m -46.9408998,-35.6274 c 0.274,0 0.5481,-0.1092 0.7674,-0.3092 0.4203,-0.4183 0.4203,-1.0912 0,-1.5095 l -7.3271,-7.29281 c -4.056,-4.0374 -6.56,-10.6755 -6.669,-17.7319 -0.128,-7.2564 2.192,-13.785397 6.34,-17.931897 l 37.8781,-37.70073 c 4.1477,-4.12835 11.0545003,-6.65628 18.4729998,-6.74721 7.4001988,-0.09093 14.2156982,2.21876 18.2354992,6.2198 l 9.464901,9.42064 c 0.4203,0.4183 1.0963,0.4183 1.5166,0 0.4203,-0.4183 0.4203,-1.0912 0,-1.5095 l -9.464901,-9.42063 C 14.21043,49.086783 6.8102306,46.522481 -1.1563682,46.6316 -9.2508677,46.74072 -16.523168,49.432333 -21.127668,53.997153 l -37.8775,37.7007 c -4.568,4.5466 -7.108,11.639397 -6.98,19.477797 0.128,7.602 2.868,14.7857 7.308,19.2232 l 7.3275,7.29281 c 0.201,0.2 0.4751,0.3092 0.7492,0.3092 z"
     fill="#ffffff"
     id="path2" />
  <g
     style="fill:none"
     id="g27"
     transform="translate(47.371634,198.85836)">
    <path
       d="m 9.93052,81 c 0.45648,0 0.91298,-0.0116 1.38128,-0.0348 5.2909,-0.29 10.2189,-2.2039 13.1687,-5.1269 L 47.634,52.8833 c 2.9264,-2.8998 4.5184,-7.6323 4.3545,-12.968 -0.1639,-5.1733 -1.99,-9.987 -4.9046,-12.8636 l -9.3762,-9.291 c -0.2692,-0.2668 -0.7023,-0.2668 -0.9715,0 -0.2692,0.2667 -0.2692,0.6959 0,0.9627 l 9.3761,9.291 c 2.6689,2.6447 4.3428,7.1104 4.4949,11.9357 0.1522,4.8949 -1.3227,9.3606 -3.9447,11.9589 L 23.4972,74.864 C 20.7815,77.555 16.193,79.3297 11.2298,79.5965 6.20816,79.8633 1.67812,78.5062 -0.897102,75.9543 L -10.5542,66.3849 c -0.2692,-0.2668 -0.7023,-0.2668 -0.9715,0 -0.2692,0.2668 -0.2692,0.6959 0,0.9627 l 9.65704,9.5695 C 0.765079,79.5501 5.01419,81 9.93052,81 Z M -20.141,58.277 c 0.1756,0 0.3512,-0.0696 0.4916,-0.1972 0.2693,-0.2668 0.2693,-0.696 0,-0.9627 l -4.6939,-4.6514 c -2.5986,-2.575 -4.2023,-6.8087 -4.2725,-11.3093 -0.0819,-4.6281 1.4047,-8.7922 4.0618,-11.4369 L -0.288418,5.67419 C 2.36874,3.04115 6.79343,1.42885 11.5459,1.37085 16.2866,1.31286 20.6528,2.78597 23.228,5.33781 l 6.0635,6.00839 c 0.2692,0.2668 0.7023,0.2668 0.9715,0 0.2692,-0.2667 0.2692,-0.6959 0,-0.9627 L 24.1996,4.37507 C 21.3785,1.56804 16.6378,-0.0674607 11.5342,0.00213504 6.34862,0.0717308 1.68982,1.78843 -1.25998,4.69985 L -25.5255,28.7452 c -2.9264,2.8998 -4.5535,7.4235 -4.4715,12.4228 0.0819,4.8485 1.8377,9.4303 4.6822,12.2605 l 4.6939,4.6513 c 0.1287,0.1276 0.3043,0.1972 0.4799,0.1972 z"
       fill="#ffffff"
       id="path18" />
  </g>
  <g
     style="fill:none"
     id="g46"
     transform="translate(47.068514,299.82379)">
    <path
       d="m -50.8956,106 c 0.5957,0 1.1914,-0.015 1.8024,-0.046 6.904,-0.379 13.3345,-2.884 17.1836,-6.7088 L -1.69706,69.2053 C 2.12151,65.4105 4.19881,59.2173 3.98497,52.2348 3.77113,45.4649 1.38835,39.1654 -2.41495,35.401 L -14.6497,23.2423 c -0.3513,-0.3491 -0.9164,-0.3491 -1.2677,0 -0.3513,0.3492 -0.3513,0.9108 0,1.2599 l 12.23468,12.1587 c 3.482539,3.4608 5.66676,9.3049 5.86533,15.6195 0.19856,6.4056 -1.725996,12.2497 -5.14744,15.6499 L -33.1926,97.9701 c -3.5437,3.5219 -9.5312,5.8439 -16.0075,6.1929 -6.5527,0.349 -12.4638,-1.427 -15.8242,-4.766 L -77.6256,86.8741 c -0.3513,-0.3492 -0.9164,-0.3492 -1.2677,0 -0.3513,0.3491 -0.3513,0.9107 0,1.2598 l 12.6013,12.5231 c 3.4367,3.446 8.9812,5.343 15.3964,5.343 z M -90.1352,76.2637 c 0.2291,0 0.4582,-0.0911 0.6415,-0.258 0.3513,-0.3492 0.3513,-0.9108 0,-1.2599 l -6.125,-6.0869 c -3.3909,-3.3698 -5.4833,-8.9103 -5.5753,-14.7999 -0.107,-6.0565 1.8331,-11.5059 5.3004,-14.9668 L -64.23,7.42548 c 3.4673,-3.4457 9.2409,-5.55563 15.4423,-5.63153 6.1861,-0.07589 11.8834,1.85188 15.2437,5.19133 l 7.9121,7.86292 c 0.3513,0.3491 0.9165,0.3491 1.2678,0 0.3513,-0.3492 0.3513,-0.9108 0,-1.2599 L -32.2762,5.7254 C -35.9573,2.052 -42.1434,-0.0882819 -48.803,0.002794 -55.5695,0.0938699 -61.6487,2.34041 -65.4978,6.15042 L -97.1614,37.6172 c -3.8186,3.7948 -5.9416,9.7147 -5.8346,16.257 0.107,6.345 2.398,12.3408 6.1096,16.0445 l 6.1249,6.087 c 0.1681,0.1669 0.3972,0.258 0.6263,0.258 z"
       fill="#ffffff"
       id="path37" />
  </g>
</svg>
