<?xml version="1.0" encoding="UTF-8" standalone="no"?>
<svg
   width="1705.9479"
   height="441.66821"
   viewBox="0 0 1705.9479 441.66822"
   fill="none"
   version="1.1"
   id="svg15"
   sodipodi:docname="Vector.svg"
   inkscape:version="1.1 (c68e22c387, 2021-05-23)"
   xmlns:inkscape="http://www.inkscape.org/namespaces/inkscape"
   xmlns:sodipodi="http://sodipodi.sourceforge.net/DTD/sodipodi-0.dtd"
   xmlns="http://www.w3.org/2000/svg"
   xmlns:svg="http://www.w3.org/2000/svg">
  <sodipodi:namedview
     id="namedview17"
     pagecolor="#000000"
     bordercolor="#666666"
     borderopacity="1.0"
     inkscape:pageshadow="2"
     inkscape:pageopacity="1"
     inkscape:pagecheckerboard="true"
     showgrid="false"
     fit-margin-top="0"
     fit-margin-left="0"
     fit-margin-right="0"
     fit-margin-bottom="0"
     inkscape:zoom="0.41401274"
     inkscape:cx="486.7"
     inkscape:cy="192.02308"
     inkscape:window-width="1360"
     inkscape:window-height="705"
     inkscape:window-x="-8"
     inkscape:window-y="-8"
     inkscape:window-maximized="1"
     inkscape:current-layer="svg15" />
  <g
     filter="url(#filter0_f_9_2)"
     id="g4"
     transform="matrix(1.069667,0,0,1.069667,1536.9405,131.54841)">
    <path
       d="m 80.6694,142 c -0.7126,0 -1.4252,-0.018 -2.1561,-0.055 -8.2589,-0.454 -15.9515,-3.455 -20.556,-8.038 L 21.8152,97.9158 C 17.2472,93.3692 14.7622,85.9491 15.018,77.5833 15.2738,69.472 18.1242,61.9246 22.674,57.4144 L 37.3099,42.8469 c 0.4202,-0.4182 1.0963,-0.4182 1.5166,0 0.4202,0.4183 0.4202,1.0912 0,1.5095 l -14.636,14.5675 c -4.166,4.1465 -6.7789,11.1483 -7.0164,18.7139 -0.2376,7.6747 2.0647,14.6766 6.1577,18.7503 l 36.1603,35.9909 c 4.2392,4.22 11.4018,7.002 19.1491,7.42 7.8388,0.419 14.91,-1.709 18.9299,-5.71 l 15.0749,-15.004 c 0.42,-0.418 1.096,-0.418 1.516,0 0.42,0.418 0.42,1.091 0,1.509 L 99.0877,135.598 C 94.9765,139.727 88.3437,142 80.6694,142 Z M 127.61,106.373 c -0.274,0 -0.548,-0.11 -0.767,-0.31 -0.42,-0.418 -0.42,-1.091 0,-1.509 l 7.327,-7.2929 c 4.056,-4.0374 6.56,-10.6755 6.669,-17.7319 0.128,-7.2564 -2.192,-13.7854 -6.34,-17.9319 L 96.6209,23.8966 c -4.1477,-4.1284 -11.0545,-6.6563 -18.473,-6.7472 -7.4002,-0.091 -14.2157,2.2187 -18.2355,6.2198 l -9.4649,9.4206 c -0.4203,0.4183 -1.0963,0.4183 -1.5166,0 -0.4203,-0.4183 -0.4203,-1.0912 0,-1.5095 l 9.4649,-9.4206 c 4.4036,-4.4012 11.8038,-6.9655 19.7704,-6.8564 8.0945,0.1092 15.3668,2.8008 19.9713,7.3656 l 37.8775,37.7007 c 4.568,4.5466 7.108,11.6394 6.98,19.4778 -0.128,7.602 -2.868,14.7857 -7.308,19.2232 l -7.328,7.2924 c -0.2,0.2 -0.475,0.31 -0.749,0.31 z"
       fill="#00ff68"
       id="path2" />
  </g>
  <defs
     id="defs13">
    <filter
       id="filter0_f_9_2"
       x="0"
       y="0"
       width="158"
       height="157"
       filterUnits="userSpaceOnUse"
       color-interpolation-filters="sRGB">
      <feFlood
         flood-opacity="0"
         result="BackgroundImageFix"
         id="feFlood6" />
      <feBlend
         mode="normal"
         in="SourceGraphic"
         in2="BackgroundImageFix"
         result="shape"
         id="feBlend8" />
      <feGaussianBlur
         stdDeviation="7.5"
         result="effect1_foregroundBlur_9_2"
         id="feGaussianBlur10" />
    </filter>
    <filter
       id="filter0_f_9_3"
       x="0"
       y="0"
       width="78"
       height="77"
       filterUnits="userSpaceOnUse"
       color-interpolation-filters="sRGB">
      <feFlood
         flood-opacity="0"
         result="BackgroundImageFix"
         id="feFlood40" />
      <feBlend
         mode="normal"
         in="SourceGraphic"
         in2="BackgroundImageFix"
         result="shape"
         id="feBlend42" />
      <feGaussianBlur
         stdDeviation="1"
         result="effect1_foregroundBlur_9_3"
         id="feGaussianBlur44" />
    </filter>
    <filter
       id="filter0_f_9_13"
       x="0"
       y="0"
       width="94"
       height="93"
       filterUnits="userSpaceOnUse"
       color-interpolation-filters="sRGB">
      <feFlood
         flood-opacity="0"
         result="BackgroundImageFix"
         id="feFlood82" />
      <feBlend
         mode="normal"
         in="SourceGraphic"
         in2="BackgroundImageFix"
         result="shape"
         id="feBlend84" />
      <feGaussianBlur
         stdDeviation="5"
         result="effect1_foregroundBlur_9_13"
         id="feGaussianBlur86" />
    </filter>
    <filter
       id="filter0_f_9_4"
       x="0"
       y="0"
       width="116"
       height="115"
       filterUnits="userSpaceOnUse"
       color-interpolation-filters="sRGB">
      <feFlood
         flood-opacity="0"
         result="BackgroundImageFix"
         id="feFlood159" />
      <feBlend
         mode="normal"
         in="SourceGraphic"
         in2="BackgroundImageFix"
         result="shape"
         id="feBlend161" />
      <feGaussianBlur
         stdDeviation="2"
         result="effect1_foregroundBlur_9_4"
         id="feGaussianBlur163" />
    </filter>
    <filter
       id="filter0_f_9_7"
       x="-53"
       y="0"
       width="148"
       height="147"
       filterUnits="userSpaceOnUse"
       color-interpolation-filters="sRGB">
      <feFlood
         flood-opacity="0"
         result="BackgroundImageFix"
         id="feFlood201" />
      <feBlend
         mode="normal"
         in="SourceGraphic"
         in2="BackgroundImageFix"
         result="shape"
         id="feBlend203" />
      <feGaussianBlur
         stdDeviation="5"
         result="effect1_foregroundBlur_9_7"
         id="feGaussianBlur205" />
    </filter>
    <filter
       id="filter0_f_9_8"
       x="0"
       y="0"
       width="84"
       height="83"
       filterUnits="userSpaceOnUse"
       color-interpolation-filters="sRGB">
      <feFlood
         flood-opacity="0"
         result="BackgroundImageFix"
         id="feFlood243" />
      <feBlend
         mode="normal"
         in="SourceGraphic"
         in2="BackgroundImageFix"
         result="shape"
         id="feBlend245" />
      <feGaussianBlur
         stdDeviation="2.5"
         result="effect1_foregroundBlur_9_8"
         id="feGaussianBlur247" />
    </filter>
    <filter
       id="filter0_f_9_10"
       x="0"
       y="0"
       width="116"
       height="115"
       filterUnits="userSpaceOnUse"
       color-interpolation-filters="sRGB">
      <feFlood
         flood-opacity="0"
         result="BackgroundImageFix"
         id="feFlood380" />
      <feBlend
         mode="normal"
         in="SourceGraphic"
         in2="BackgroundImageFix"
         result="shape"
         id="feBlend382" />
      <feGaussianBlur
         stdDeviation="2"
         result="effect1_foregroundBlur_9_10"
         id="feGaussianBlur384" />
    </filter>
    <filter
       id="filter0_f_9_12"
       x="0"
       y="0"
       width="114"
       height="113"
       filterUnits="userSpaceOnUse"
       color-interpolation-filters="sRGB">
      <feFlood
         flood-opacity="0"
         result="BackgroundImageFix"
         id="feFlood422" />
      <feBlend
         mode="normal"
         in="SourceGraphic"
         in2="BackgroundImageFix"
         result="shape"
         id="feBlend424" />
      <feGaussianBlur
         stdDeviation="5"
         result="effect1_foregroundBlur_9_12"
         id="feGaussianBlur426" />
    </filter>
  </defs>
  <g
     style="fill:none"
     id="g59"
     transform="matrix(1.069667,0,0,1.069667,1442.0706,20.069712)">
    <path
       d="m 39.9651,75 c -0.4119,0 -0.8239,-0.0105 -1.2464,-0.0314 -4.7748,-0.2613 -9.222,-1.9862 -11.884,-4.6205 L 5.94002,49.6603 C 3.29914,47.0468 1.8625,42.7817 2.01039,37.973 2.15828,33.3107 3.80619,28.9724 6.43651,26.3799 l 8.46139,-8.3734 c 0.243,-0.2404 0.6338,-0.2404 0.8768,0 0.2429,0.2404 0.2429,0.6272 0,0.8677 L 7.31328,27.2476 C 4.9048,29.631 3.39421,33.6557 3.25689,38.0044 3.11956,42.4159 4.45057,46.4405 6.8168,48.7822 L 27.722,69.47 c 2.4508,2.4253 6.5917,4.0247 11.0706,4.2651 4.5317,0.2404 8.6198,-0.9826 10.9438,-3.2825 l 8.7149,-8.6242 c 0.243,-0.2405 0.6338,-0.2405 0.8768,0 0.243,0.2404 0.243,0.6272 0,0.8676 l -8.7149,8.6243 C 48.2364,73.6933 44.4018,75 39.9651,75 Z M 67.1028,54.5212 c -0.1584,0 -0.3169,-0.0627 -0.4436,-0.1777 -0.243,-0.2404 -0.243,-0.6272 0,-0.8676 l 4.236,-4.192 c 2.3451,-2.3207 3.7923,-6.1363 3.8556,-10.1923 0.074,-4.171 -1.2676,-7.9239 -3.6655,-10.3073 L 49.1871,7.11378 C 46.7892,4.74079 42.7962,3.28773 38.5074,3.23546 34.2292,3.18319 30.289,4.51081 27.965,6.81062 l -5.4719,5.41498 c -0.243,0.2405 -0.6338,0.2405 -0.8768,0 -0.243,-0.2404 -0.243,-0.6272 0,-0.8676 l 5.4719,-5.41504 c 2.5458,-2.52979 6.824,-4.00376 11.4297,-3.94104 4.6797,0.06273 8.884,1.60987 11.546,4.23375 L 71.9621,27.9062 c 2.6409,2.6134 4.1092,6.6903 4.0352,11.1958 -0.0739,4.3697 -1.6584,8.4989 -4.2254,11.0496 l -4.2359,4.1919 c -0.1162,0.115 -0.2747,0.1777 -0.4332,0.1777 z"
       fill="#00ff68"
       id="path36"
       style="filter:url(#filter0_f_9_3)" />
  </g>
  <g
     style="fill:none"
     id="g101"
     transform="matrix(1.069667,0,0,1.069667,1119.8928,0)">
    <path
       d="m 47.9651,83 c -0.4119,0 -0.8239,-0.0105 -1.2464,-0.0314 -4.7748,-0.2613 -9.222,-1.9862 -11.884,-4.6205 L 13.94,57.6603 C 11.2991,55.0468 9.8625,50.7817 10.0104,45.973 c 0.1479,-4.6623 1.7958,-9.0006 4.4261,-11.5931 l 8.4614,-8.3734 c 0.243,-0.2404 0.6338,-0.2404 0.8768,0 0.2429,0.2404 0.2429,0.6272 0,0.8677 l -8.4614,8.3734 c -2.4085,2.3834 -3.9191,6.4081 -4.0564,10.7568 -0.1373,4.4115 1.1937,8.4361 3.5599,10.7778 L 35.722,77.47 c 2.4508,2.4253 6.5917,4.0247 11.0706,4.2651 4.5317,0.2404 8.6198,-0.9826 10.9438,-3.2825 l 8.7149,-8.6242 c 0.243,-0.2405 0.6338,-0.2405 0.8768,0 0.243,0.2404 0.243,0.6272 0,0.8676 l -8.7149,8.6243 C 56.2364,81.6933 52.4018,83 47.9651,83 Z M 75.1028,62.5212 c -0.1584,0 -0.3169,-0.0627 -0.4436,-0.1777 -0.243,-0.2404 -0.243,-0.6272 0,-0.8676 l 4.236,-4.192 c 2.3451,-2.3207 3.7923,-6.1363 3.8556,-10.1923 0.074,-4.171 -1.2676,-7.9239 -3.6655,-10.3073 L 57.1871,15.1138 C 54.7892,12.7408 50.7962,11.2877 46.5074,11.2355 42.2292,11.1832 38.289,12.5108 35.965,14.8106 l -5.4719,5.415 c -0.243,0.2405 -0.6338,0.2405 -0.8768,0 -0.243,-0.2404 -0.243,-0.6272 0,-0.8676 l 5.4719,-5.415 c 2.5458,-2.5298 6.824,-4.0038 11.4297,-3.9411 4.6797,0.0627 8.884,1.6099 11.546,4.2338 l 21.8982,21.6705 c 2.6409,2.6134 4.1092,6.6903 4.0352,11.1958 -0.0739,4.3697 -1.6584,8.4989 -4.2254,11.0496 l -4.2359,4.1919 c -0.1162,0.115 -0.2747,0.1777 -0.4332,0.1777 z"
       fill="#00ff68"
       id="path78"
       style="filter:url(#filter0_f_9_13)" />
  </g>
  <g
     style="fill:none"
     id="g136"
     transform="matrix(1.069667,0,0,1.069667,1410.2903,153.38004)">
    <path
       d="m 19.4956,37 c -0.2115,0 -0.4231,-0.0053 -0.6401,-0.0159 -2.4519,-0.1325 -4.7356,-1.0067 -6.1026,-2.3419 L 2.02326,24.1566 C 0.667127,22.832 -0.0706072,20.6702 0.00533604,18.2329 0.0812792,15.8698 0.927503,13.671 2.27821,12.3569 L 6.62324,8.11289 c 0.12477,-0.12186 0.32547,-0.12186 0.45024,0 0.12476,0.12186 0.12476,0.31791 0,0.43977 L 2.72844,12.7967 C 1.49165,14.0048 0.715947,16.0447 0.645429,18.2488 0.57491,20.4848 1.2584,22.5247 2.47349,23.7115 L 13.2086,34.1971 c 1.2585,1.2293 3.3849,2.0399 5.6849,2.1618 2.3271,0.1219 4.4264,-0.4981 5.6198,-1.6637 l 4.4752,-4.3712 c 0.1248,-0.1219 0.3255,-0.1219 0.4502,0 0.1248,0.1218 0.1248,0.3179 0,0.4397 l -4.4752,4.3712 C 23.743,36.3377 21.7739,37 19.4956,37 Z M 33.4312,26.6203 c -0.0814,0 -0.1627,-0.0317 -0.2278,-0.09 -0.1248,-0.1219 -0.1248,-0.3179 0,-0.4398 l 2.1752,-2.1247 c 1.2042,-1.1762 1.9474,-3.1102 1.9799,-5.166 0.038,-2.114 -0.6509,-4.0162 -1.8823,-5.2242 L 24.2312,2.59191 C 22.9999,1.38917 20.9494,0.652684 18.747,0.626191 16.5501,0.599699 14.5268,1.2726 13.3334,2.43826 l -2.8099,2.74459 c -0.1248,0.12187 -0.3255,0.12187 -0.4503,0 -0.12473,-0.12186 -0.12473,-0.3179 0,-0.43977 L 12.8831,1.99849 C 14.1904,0.716265 16.3874,-0.0308154 18.7525,9.75265e-4 21.1555,0.0327659 23.3145,0.816935 24.6815,2.14684 l 11.245,10.98366 c 1.3561,1.3246 2.1101,3.391 2.0721,5.6746 -0.0379,2.2148 -0.8516,4.3077 -2.1698,5.6005 l -2.1752,2.1247 c -0.0597,0.0583 -0.141,0.09 -0.2224,0.09 z"
       fill="#00ff68"
       id="path127" />
  </g>
  <g
     style="fill:none"
     id="g178"
     transform="matrix(1.069667,0,0,1.069667,1415.2782,292.2102)">
    <path
       d="m 59.4086,111 c -0.6013,0 -1.2025,-0.015 -1.8192,-0.046 -6.9685,-0.383 -13.4591,-2.911 -17.3442,-6.773 L 9.7503,73.8582 C 5.89604,70.0276 3.79933,63.776 4.01517,56.7276 4.231,49.8938 6.63606,43.5349 10.4749,39.7349 L 22.824,27.4616 c 0.3545,-0.3524 0.925,-0.3524 1.2796,0 0.3546,0.3524 0.3546,0.9194 0,1.2718 L 11.7545,41.0067 C 8.23943,44.5002 6.0348,50.3994 5.83438,56.7736 5.63395,63.2397 7.5765,69.1389 11.0299,72.5711 l 30.5103,30.3229 c 3.5768,3.555 9.6203,5.9 16.1571,6.252 6.6139,0.352 12.5803,-1.44 15.9721,-4.811 l 12.719,-12.6414 c 0.3546,-0.3524 0.925,-0.3524 1.2796,0 0.3546,0.3524 0.3546,0.9194 0,1.2718 L 74.949,105.606 C 71.4801,109.085 65.8838,111 59.4086,111 Z M 99.015,80.9832 c -0.2313,0 -0.4625,-0.092 -0.6476,-0.2605 -0.3545,-0.3524 -0.3545,-0.9194 0,-1.2718 l 6.1826,-6.1443 c 3.422,-3.4016 5.534,-8.9943 5.627,-14.9395 0.108,-6.1137 -1.85,-11.6144 -5.35,-15.108 L 72.8677,11.4955 C 69.368,8.01732 63.5404,5.88749 57.281,5.81088 51.0371,5.73427 45.2866,7.68023 41.8948,11.0512 l -7.986,7.937 c -0.3546,0.3525 -0.925,0.3525 -1.2796,0 -0.3546,-0.3524 -0.3546,-0.9193 0,-1.2717 l 7.986,-7.93709 C 44.3307,6.07136 50.5746,3.91089 57.2965,4.00282 64.1262,4.09476 70.2622,6.36249 74.1473,10.2084 L 106.107,41.972 c 3.854,3.8307 5.997,9.8064 5.889,16.4105 -0.108,6.4048 -2.42,12.4572 -6.167,16.1959 l -6.1819,6.1443 c -0.1696,0.1685 -0.4009,0.2605 -0.6321,0.2605 z"
       fill="#00ff68"
       id="path155"
       style="filter:url(#filter0_f_9_4)" />
  </g>
  <g
     style="fill:none"
     id="g220"
     transform="matrix(1.069667,0,0,1.069667,56.692351,127.4829)">
    <path
       d="m 19.3306,137 c 0.7126,0 1.4252,-0.018 2.1561,-0.055 8.2589,-0.454 15.9515,-3.455 20.556,-8.038 L 78.1848,92.9158 C 82.7528,88.3692 85.2378,80.9491 84.982,72.5833 84.7262,64.472 81.8758,56.9246 77.326,52.4144 L 62.6901,37.8469 c -0.4202,-0.4182 -1.0963,-0.4182 -1.5166,0 -0.4202,0.4183 -0.4202,1.0912 0,1.5095 l 14.636,14.5675 c 4.166,4.1465 6.7789,11.1483 7.0164,18.7139 0.2376,7.6747 -2.0647,14.6766 -6.1577,18.7503 L 40.5079,127.379 c -4.2392,4.22 -11.4018,7.002 -19.1491,7.42 C 13.52,135.218 6.44876,133.09 2.42891,129.089 L -12.6455,114.085 c -0.4203,-0.418 -1.0964,-0.418 -1.5166,0 -0.4203,0.418 -0.4203,1.091 0,1.509 L 0.912331,130.598 C 5.02354,134.727 11.6563,137 19.3306,137 Z m -46.9409,-35.627 c 0.274,0 0.5481,-0.11 0.7674,-0.31 0.4203,-0.418 0.4203,-1.0908 0,-1.5091 L -34.17,92.2611 c -4.0564,-4.0374 -6.5597,-10.6755 -6.6693,-17.7319 -0.1279,-7.2564 2.1926,-13.7854 6.3404,-17.9319 L 3.37905,18.8966 c 4.14776,-4.1284 11.05455,-6.6563 18.47305,-6.7472 7.4002,-0.091 14.2157,2.2187 18.2355,6.2198 l 9.4649,9.4206 c 0.4203,0.4183 1.0963,0.4183 1.5166,0 0.4203,-0.4183 0.4203,-1.0912 0,-1.5095 L 41.6042,16.8597 C 37.2006,12.4585 29.8004,9.89423 21.8338,10.0033 13.7393,10.1125 6.46703,12.8041 1.86247,17.3689 L -36.0155,55.0696 c -4.568,4.5466 -7.1078,11.6394 -6.9799,19.4778 0.1279,7.602 2.8687,14.7857 7.3088,19.2232 l 7.3271,7.2924 c 0.201,0.2 0.4751,0.31 0.7492,0.31 z"
       fill="#00ff68"
       id="path197"
       style="filter:url(#filter0_f_9_7)" />
  </g>
  <g
     style="fill:none"
     id="g262"
     transform="matrix(1.069667,0,0,1.069667,176.66627,4.4133925)">
    <path
       d="m 41.0349,78 c 0.4119,0 0.8239,-0.0105 1.2464,-0.0314 4.7748,-0.2613 9.222,-1.9862 11.884,-4.6205 L 75.06,52.6603 c 2.6409,-2.6135 4.0775,-6.8786 3.9296,-11.6873 -0.1479,-4.6623 -1.7958,-9.0006 -4.4261,-11.5931 l -8.4614,-8.3734 c -0.243,-0.2404 -0.6338,-0.2404 -0.8768,0 -0.2429,0.2404 -0.2429,0.6272 0,0.8677 l 8.4614,8.3734 c 2.4085,2.3834 3.9191,6.4081 4.0564,10.7568 0.1373,4.4115 -1.1937,8.4361 -3.5599,10.7778 L 53.278,72.47 c -2.4508,2.4253 -6.5917,4.0247 -11.0706,4.2651 -4.5317,0.2404 -8.6198,-0.9826 -10.9438,-3.2825 l -8.7149,-8.6242 c -0.243,-0.2405 -0.6338,-0.2405 -0.8768,0 -0.243,0.2404 -0.243,0.6272 0,0.8676 l 8.7149,8.6243 C 32.7636,76.6933 36.5982,78 41.0349,78 Z M 13.8972,57.5212 c 0.1584,0 0.3169,-0.0627 0.4436,-0.1777 0.243,-0.2404 0.243,-0.6272 0,-0.8676 l -4.236,-4.192 C 7.75974,49.9632 6.31254,46.1476 6.24915,42.0916 6.17521,37.9206 7.51678,34.1677 9.9147,31.7843 L 31.8129,10.1138 C 34.2108,7.74079 38.2038,6.28773 42.4926,6.23546 46.7708,6.18319 50.711,7.51081 53.035,9.81062 l 5.4719,5.41498 c 0.243,0.2405 0.6338,0.2405 0.8768,0 0.243,-0.2404 0.243,-0.6272 0,-0.8676 L 53.9118,8.94296 C 51.366,6.41317 47.0878,4.9392 42.4821,5.00192 37.8024,5.06465 33.5981,6.61179 30.9361,9.23567 L 9.03793,30.9062 c -2.64088,2.6134 -4.10921,6.6903 -4.03527,11.1958 0.07395,4.3697 1.65847,8.4989 4.22541,11.0496 l 4.23593,4.1919 c 0.1162,0.115 0.2747,0.1777 0.4332,0.1777 z"
       fill="#00ff68"
       id="path239"
       style="filter:url(#filter0_f_9_8)" />
  </g>
  <g
     style="fill:none"
     id="g281"
     transform="matrix(1.069667,0,0,1.069667,387.15063,226.51463)">
    <path
       d="M 54.3788,3.49661 C 54.022,3.29062 53.66,3.09368 53.2836,2.90052 49.0179,0.739491 44.3041,0.00964106 40.6815,0.960027 L 12.2423,8.4289 c -3.59378,0.94284 -6.9705,3.9182 -9.24677,8.1566 -2.2031,4.1117 -2.9451076,8.6927 -1.96344,12.253 l 3.14107,11.4823 c 0.0902,0.3297 0.42868,0.5251 0.75931,0.4384 C 5.2631,40.6724 5.45649,40.3375 5.3663,40.0078 L 2.22522,28.5255 C 1.33114,25.2571 2.03526,21.0164 4.0907,17.1816 6.1775,13.2925 9.34252,10.4725 12.5625,9.62775 L 41.0109,2.16416 c 3.3351,-0.87497 7.7209,-0.18964 11.72,1.8416 4.0448,2.05766 6.9737,5.16092 7.8364,8.31464 l 3.2352,11.8263 c 0.0902,0.3297 0.4286,0.5251 0.7593,0.4384 0.3306,-0.0868 0.524,-0.4217 0.4338,-0.7515 L 61.7604,12.0073 C 60.8885,8.76388 58.2211,5.71495 54.3788,3.49661 Z M 67.6413,34.8006 c -0.1372,-0.0792 -0.3058,-0.1041 -0.473,-0.0679 -0.3307,0.0867 -0.5241,0.4217 -0.4339,0.7514 l 1.5725,5.7483 c 0.8706,3.1823 0.2161,7.2103 -1.757,10.7547 -2.0215,3.6491 -5.0598,6.2284 -8.3281,7.0936 L 28.4221,66.8988 C 25.159,67.7549 20.9744,67.0168 17.234,64.9176 13.5029,62.8238 10.7544,59.7039 9.89164,56.5503 L 7.86033,49.1248 C 7.77014,48.7951 7.43165,48.5996 7.10103,48.6864 6.7704,48.7731 6.57701,49.1081 6.6672,49.4378 l 2.0313,7.4255 c 0.93985,3.4638 3.9079,6.8794 7.9279,9.1279 4.0841,2.2855 8.4987,3.0478 12.116,2.1064 L 58.542,60.2795 c 3.5938,-0.9428 6.9039,-3.7394 9.0926,-7.6783 2.1208,-3.8211 2.8131,-8.1894 1.8655,-11.6818 l -1.5725,-5.7483 c -0.0432,-0.1577 -0.149,-0.2913 -0.2863,-0.3705 z"
       fill="#00ff68"
       id="path272" />
  </g>
  <g
     style="fill:none"
     id="g300"
     transform="matrix(1.069667,0,0,1.069667,239.16837,134.88266)">
    <path
       opacity="0.4"
       d="m 18.5044,37 c 0.2115,0 0.4231,-0.0053 0.6401,-0.0159 2.4519,-0.1325 4.7356,-1.0067 6.1026,-2.3419 L 35.9767,24.1566 c 1.3562,-1.3246 2.0939,-3.4864 2.018,-5.9237 -0.076,-2.3631 -0.9222,-4.5619 -2.2729,-5.876 l -4.345,-4.24401 c -0.1248,-0.12186 -0.3255,-0.12186 -0.4503,0 -0.1247,0.12186 -0.1247,0.31791 0,0.43977 l 4.3451,4.24404 c 1.2367,1.2081 2.0125,3.248 2.083,5.4521 0.0705,2.236 -0.613,4.2759 -1.8281,5.4627 L 24.7914,34.1971 c -1.2585,1.2293 -3.3849,2.0399 -5.6849,2.1618 -2.3271,0.1219 -4.4264,-0.4981 -5.6198,-1.6637 L 9.01148,30.324 c -0.12476,-0.1219 -0.32547,-0.1219 -0.45023,0 -0.12476,0.1218 -0.12476,0.3179 0,0.4397 l 4.47525,4.3712 C 14.257,36.3377 16.2261,37 18.5044,37 Z M 4.56881,26.6203 c 0.08137,0 0.16273,-0.0317 0.22783,-0.09 0.12477,-0.1219 0.12477,-0.3179 0,-0.4398 L 2.62141,23.9658 C 1.41717,22.7896 0.674007,20.8556 0.64146,18.7998 0.603489,16.6858 1.2924,14.7836 2.52377,13.5756 L 13.7688,2.59191 C 15.0001,1.38917 17.0506,0.652684 19.253,0.626191 21.4499,0.599699 23.4732,1.2726 24.6666,2.43826 l 2.8099,2.74459 c 0.1248,0.12187 0.3255,0.12187 0.4503,0 0.1247,-0.12186 0.1247,-0.3179 0,-0.43977 L 25.1169,1.99849 C 23.8096,0.716265 21.6126,-0.0308154 19.2475,9.75265e-4 16.8445,0.0327659 14.6855,0.816935 13.3185,2.14684 L 2.07353,13.1305 C 0.717403,14.4551 -0.036602,16.5215 0.00136948,18.8051 0.039341,21.0199 0.853016,23.1128 2.17117,24.4056 l 2.17523,2.1247 c 0.05967,0.0583 0.14104,0.09 0.22241,0.09 z"
       fill="#00ff68"
       id="path291" />
  </g>
  <g
     style="fill:none"
     id="g319"
     transform="matrix(1.069667,0,0,1.069667,450.08329,101.62935)">
    <path
       opacity="0.5"
       d="M 27.5894,1.74784 C 27.4062,1.64206 27.2204,1.54087 27.0272,1.44156 24.8375,0.330333 22.4227,-0.0544129 20.5712,0.418423 L 6.03623,4.13439 C 4.19948,4.60347 2.4797,6.10675 1.32683,8.25547 0.211045,10.3399 -0.15553,12.6673 0.357207,14.4806 l 1.640883,5.848 c 0.04712,0.1679 0.22094,0.2683 0.38992,0.2251 0.16898,-0.0431 0.267,-0.2129 0.21988,-0.3808 L 0.967007,14.3249 C 0.499939,12.6603 0.848108,10.5059 1.88911,8.56175 2.94601,6.59011 4.55788,5.16525 6.20361,4.74495 L 20.7433,1.03169 c 1.7045,-0.435306 3.9514,-0.074155 6.0041,0.9703 2.0763,1.05802 3.5844,2.64454 4.0351,4.25072 l 1.69,6.02319 c 0.0471,0.1679 0.221,0.2683 0.3899,0.2251 0.169,-0.0431 0.267,-0.2129 0.2199,-0.3808 l -1.69,-6.02322 C 30.9366,4.44511 29.5625,2.88699 27.5894,1.74784 Z m 6.8788,15.95686 c -0.0705,-0.0407 -0.1568,-0.0539 -0.2424,-0.0359 -0.1689,0.0431 -0.267,0.2129 -0.2198,0.3808 l 0.8214,2.9277 c 0.4548,1.6207 0.1314,3.6671 -0.8683,5.4638 -1.0241,1.8498 -2.5718,3.1527 -4.2422,3.5832 L 14.4866,33.9139 C 12.8188,34.3398 10.6748,33.9524 8.75425,32.8742 6.83841,31.7987 5.42259,30.2042 4.97191,28.5981 L 3.91077,24.8162 C 3.86365,24.6483 3.68983,24.5479 3.52085,24.5911 3.35187,24.6343 3.25385,24.804 3.30097,24.972 l 1.06114,3.7818 c 0.49105,1.7641 2.02011,3.5095 4.08423,4.6646 2.09696,1.174 4.35876,1.5743 6.20756,1.1061 l 15.2303,-3.8897 c 1.8368,-0.469 3.523,-1.8816 4.6319,-3.8782 1.0745,-1.9371 1.4163,-4.1564 0.9211,-5.9351 l -0.8214,-2.9276 c -0.0226,-0.0803 -0.0771,-0.1485 -0.1476,-0.1892 z"
       fill="#00ff68"
       id="path310" />
  </g>
  <g
     style="fill:none"
     id="g338"
     transform="matrix(1.069667,0,0,1.069667,676.69301,61.599907)">
    <path
       opacity="0.3"
       d="m 18.5044,37 c 0.2115,0 0.4231,-0.0053 0.6401,-0.0159 2.4519,-0.1325 4.7356,-1.0067 6.1026,-2.3419 L 35.9767,24.1566 c 1.3562,-1.3246 2.0939,-3.4864 2.018,-5.9237 -0.076,-2.3631 -0.9222,-4.5619 -2.2729,-5.876 l -4.345,-4.24401 c -0.1248,-0.12186 -0.3255,-0.12186 -0.4503,0 -0.1247,0.12186 -0.1247,0.31791 0,0.43977 l 4.3451,4.24404 c 1.2367,1.2081 2.0125,3.248 2.083,5.4521 0.0705,2.236 -0.613,4.2759 -1.8281,5.4627 L 24.7914,34.1971 c -1.2585,1.2293 -3.3849,2.0399 -5.6849,2.1618 -2.3271,0.1219 -4.4264,-0.4981 -5.6198,-1.6637 L 9.01148,30.324 c -0.12476,-0.1219 -0.32547,-0.1219 -0.45023,0 -0.12476,0.1218 -0.12476,0.3179 0,0.4397 l 4.47525,4.3712 C 14.257,36.3377 16.2261,37 18.5044,37 Z M 4.56881,26.6203 c 0.08137,0 0.16273,-0.0317 0.22783,-0.09 0.12477,-0.1219 0.12477,-0.3179 0,-0.4398 L 2.62141,23.9658 C 1.41717,22.7896 0.674007,20.8556 0.64146,18.7998 0.603489,16.6858 1.2924,14.7836 2.52377,13.5756 L 13.7688,2.59191 C 15.0001,1.38917 17.0506,0.652684 19.253,0.626191 21.4499,0.599699 23.4732,1.2726 24.6666,2.43826 l 2.8099,2.74459 c 0.1248,0.12187 0.3255,0.12187 0.4503,0 0.1247,-0.12186 0.1247,-0.3179 0,-0.43977 L 25.1169,1.99849 C 23.8096,0.716265 21.6126,-0.0308154 19.2475,9.75265e-4 16.8445,0.0327659 14.6855,0.816935 13.3185,2.14684 L 2.07353,13.1305 C 0.717403,14.4551 -0.036602,16.5215 0.00136948,18.8051 0.039341,21.0199 0.853016,23.1128 2.17117,24.4056 l 2.17523,2.1247 c 0.05967,0.0583 0.14104,0.09 0.22241,0.09 z"
       fill="#00ff68"
       id="path329" />
  </g>
  <g
     style="fill:none"
     id="g357"
     transform="matrix(1.069667,0,0,1.069667,1103.1893,304.31889)">
    <path
       opacity="0.3"
       d="m 18.5044,37 c 0.2115,0 0.4231,-0.0053 0.6401,-0.0159 2.4519,-0.1325 4.7356,-1.0067 6.1026,-2.3419 L 35.9767,24.1566 c 1.3562,-1.3246 2.0939,-3.4864 2.018,-5.9237 -0.076,-2.3631 -0.9222,-4.5619 -2.2729,-5.876 l -4.345,-4.24401 c -0.1248,-0.12186 -0.3255,-0.12186 -0.4503,0 -0.1247,0.12186 -0.1247,0.31791 0,0.43977 l 4.3451,4.24404 c 1.2367,1.2081 2.0125,3.248 2.083,5.4521 0.0705,2.236 -0.613,4.2759 -1.8281,5.4627 L 24.7914,34.1971 c -1.2585,1.2293 -3.3849,2.0399 -5.6849,2.1618 -2.3271,0.1219 -4.4264,-0.4981 -5.6198,-1.6637 L 9.01148,30.324 c -0.12476,-0.1219 -0.32547,-0.1219 -0.45023,0 -0.12476,0.1218 -0.12476,0.3179 0,0.4397 l 4.47525,4.3712 C 14.257,36.3377 16.2261,37 18.5044,37 Z M 4.56881,26.6203 c 0.08137,0 0.16273,-0.0317 0.22783,-0.09 0.12477,-0.1219 0.12477,-0.3179 0,-0.4398 L 2.62141,23.9658 C 1.41717,22.7896 0.674007,20.8556 0.64146,18.7998 0.603489,16.6858 1.2924,14.7836 2.52377,13.5756 L 13.7688,2.59191 C 15.0001,1.38917 17.0506,0.652684 19.253,0.626191 21.4499,0.599699 23.4732,1.2726 24.6666,2.43826 l 2.8099,2.74459 c 0.1248,0.12187 0.3255,0.12187 0.4503,0 0.1247,-0.12186 0.1247,-0.3179 0,-0.43977 L 25.1169,1.99849 C 23.8096,0.716265 21.6126,-0.0308154 19.2475,9.75265e-4 16.8445,0.0327659 14.6855,0.816935 13.3185,2.14684 L 2.07353,13.1305 C 0.717403,14.4551 -0.036602,16.5215 0.00136948,18.8051 0.039341,21.0199 0.853016,23.1128 2.17117,24.4056 l 2.17523,2.1247 c 0.05967,0.0583 0.14104,0.09 0.22241,0.09 z"
       fill="#00ff68"
       id="path348" />
  </g>
  <g
     style="fill:none"
     id="g399"
     transform="matrix(1.069667,0,0,1.069667,142.46778,280.30911)">
    <path
       d="m 56.5914,111 c 0.6013,0 1.2025,-0.015 1.8192,-0.046 6.9685,-0.383 13.4591,-2.911 17.3442,-6.773 L 106.25,73.8582 c 3.854,-3.8306 5.951,-10.0822 5.735,-17.1306 -0.216,-6.8338 -2.621,-13.1927 -6.46,-16.9927 L 93.176,27.4616 c -0.3545,-0.3524 -0.925,-0.3524 -1.2796,0 -0.3546,0.3524 -0.3546,0.9194 0,1.2718 l 12.3486,12.2733 c 3.516,3.4935 5.72,9.3927 5.921,15.7669 0.2,6.4661 -1.743,12.3653 -5.196,15.7975 L 74.4598,102.894 c -3.5768,3.555 -9.6203,5.9 -16.1571,6.252 -6.6139,0.352 -12.5803,-1.44 -15.9721,-4.811 L 29.6116,91.6936 c -0.3546,-0.3524 -0.925,-0.3524 -1.2796,0 -0.3546,0.3524 -0.3546,0.9194 0,1.2718 L 41.051,105.606 C 44.5199,109.085 50.1162,111 56.5914,111 Z M 16.985,80.9832 c 0.2313,0 0.4625,-0.092 0.6476,-0.2605 0.3545,-0.3524 0.3545,-0.9194 0,-1.2718 L 11.4503,73.3066 C 8.02773,69.905 5.9156,64.3123 5.82309,58.3671 5.71517,52.2534 7.67314,46.7527 11.1728,43.2591 L 43.1323,11.4955 C 46.632,8.01732 52.4596,5.88749 58.719,5.81088 64.9629,5.73427 70.7134,7.68023 74.1052,11.0512 l 7.986,7.937 c 0.3546,0.3525 0.925,0.3525 1.2796,0 0.3546,-0.3524 0.3546,-0.9193 0,-1.2717 L 75.3848,9.77941 C 71.6693,6.07136 65.4254,3.91089 58.7035,4.00282 51.8738,4.09476 45.7378,6.36249 41.8527,10.2084 L 9.8932,41.972 C 6.03893,45.8027 3.89597,51.7784 4.00388,58.3825 4.1118,64.7873 6.42435,70.8397 10.1707,74.5784 l 6.1822,6.1443 c 0.1696,0.1685 0.4009,0.2605 0.6321,0.2605 z"
       fill="#00ff68"
       id="path376"
       style="filter:url(#filter0_f_9_10)" />
  </g>
  <g
     style="fill:none"
     id="g441"
     transform="matrix(1.069667,0,0,1.069667,502.1933,320.79585)">
    <path
       d="m 55.774,103 c 0.5233,0 1.0466,-0.013 1.5834,-0.04 6.0652,-0.333 11.7144,-2.53 15.0958,-5.8864 L 98.9951,70.7179 C 102.35,67.3885 104.175,61.9548 103.987,55.8287 103.799,49.889 101.706,44.3621 98.3644,41.0593 L 87.6162,30.3919 c -0.3086,-0.3063 -0.8051,-0.3063 -1.1137,0 -0.3087,0.3063 -0.3087,0.799 0,1.1053 l 10.7482,10.6675 c 3.0593,3.0364 4.9783,8.1638 5.1523,13.7039 0.175,5.6201 -1.516,10.7474 -4.5216,13.7306 L 71.3261,95.9549 c -3.1131,3.0897 -8.3732,5.1271 -14.0626,5.4341 -5.7566,0.306 -10.9496,-1.252 -13.9016,-4.1822 L 32.2916,86.2197 c -0.3087,-0.3063 -0.8051,-0.3063 -1.1138,0 -0.3086,0.3063 -0.3086,0.7991 0,1.1054 L 42.2481,98.3122 C 45.2673,101.335 50.1382,103 55.774,103 Z M 21.3018,76.9106 c 0.2013,0 0.4026,-0.0799 0.5636,-0.2264 0.3086,-0.3063 0.3086,-0.7991 0,-1.1054 L 16.4845,70.2384 C 13.5056,67.2819 11.6673,62.4209 11.5868,57.2537 11.4928,51.9399 13.197,47.1589 16.243,44.1224 L 44.0596,16.5148 c 3.046,-3.0231 8.1182,-4.8743 13.5662,-4.9409 5.4345,-0.0665 10.4396,1.6248 13.3917,4.5547 l 6.9508,6.8986 c 0.3086,0.3063 0.8051,0.3063 1.1137,0 0.3086,-0.3063 0.3086,-0.7991 0,-1.1054 L 72.1312,15.0232 C 68.8973,11.8003 63.4628,9.92255 57.6123,10.0025 51.6679,10.0824 46.3274,12.0534 42.9459,15.3961 L 15.1293,43.0037 c -3.3547,3.3295 -5.21985,8.5234 -5.1259,14.2633 0.0939,5.5668 2.1067,10.8273 5.3674,14.0768 l 5.3808,5.3404 c 0.1476,0.1465 0.3489,0.2264 0.5502,0.2264 z"
       fill="#00ff68"
       id="path418"
       style="filter:url(#filter0_f_9_12)" />
  </g>
</svg>
