<?xml version="1.0" encoding="UTF-8" standalone="no"?>
<svg
   width="718.76141"
   height="389.57339"
   viewBox="0 0 718.76141 389.57339"
   fill="none"
   version="1.1"
   id="svg15"
   sodipodi:docname="Vector.svg"
   inkscape:version="1.1 (c68e22c387, 2021-05-23)"
   xmlns:inkscape="http://www.inkscape.org/namespaces/inkscape"
   xmlns:sodipodi="http://sodipodi.sourceforge.net/DTD/sodipodi-0.dtd"
   xmlns="http://www.w3.org/2000/svg"
   xmlns:svg="http://www.w3.org/2000/svg">
  <sodipodi:namedview
     id="namedview17"
     pagecolor="#ffffff"
     bordercolor="#666666"
     borderopacity="1.0"
     inkscape:pageshadow="2"
     inkscape:pageopacity="0"
     inkscape:pagecheckerboard="true"
     showgrid="false"
     fit-margin-top="0"
     fit-margin-left="0"
     fit-margin-right="0"
     fit-margin-bottom="0"
     inkscape:zoom="0.58550243"
     inkscape:cx="-164.81571"
     inkscape:cy="176.77126"
     inkscape:window-width="1360"
     inkscape:window-height="705"
     inkscape:window-x="-8"
     inkscape:window-y="-8"
     inkscape:window-maximized="1"
     inkscape:current-layer="svg15" />
  <g
     filter="url(#filter0_f_9_517)"
     id="g4"
     transform="translate(560.76143,100.48087)">
    <path
       d="m 80.6694,142 c -0.7126,0 -1.4252,-0.018 -2.1561,-0.055 -8.2589,-0.454 -15.9515,-3.455 -20.556,-8.038 L 21.8152,97.9158 C 17.2472,93.3692 14.7622,85.9491 15.018,77.5833 15.2738,69.472 18.1242,61.9246 22.674,57.4144 L 37.3099,42.8469 c 0.4202,-0.4182 1.0963,-0.4182 1.5166,0 0.4202,0.4183 0.4202,1.0912 0,1.5095 l -14.636,14.5675 c -4.166,4.1465 -6.7789,11.1483 -7.0164,18.7139 -0.2376,7.6747 2.0647,14.6766 6.1577,18.7503 l 36.1603,35.9909 c 4.2392,4.22 11.4018,7.002 19.1491,7.42 7.8388,0.419 14.91,-1.709 18.9299,-5.71 l 15.0749,-15.004 c 0.42,-0.418 1.096,-0.418 1.516,0 0.42,0.418 0.42,1.091 0,1.509 L 99.0877,135.598 C 94.9765,139.727 88.3437,142 80.6694,142 Z M 127.61,106.373 c -0.274,0 -0.548,-0.11 -0.767,-0.31 -0.42,-0.418 -0.42,-1.091 0,-1.509 l 7.327,-7.2929 c 4.056,-4.0374 6.56,-10.6755 6.669,-17.7319 0.128,-7.2564 -2.192,-13.7854 -6.34,-17.9319 L 96.6209,23.8966 c -4.1477,-4.1284 -11.0545,-6.6563 -18.473,-6.7472 -7.4002,-0.091 -14.2157,2.2187 -18.2355,6.2198 l -9.4649,9.4206 c -0.4203,0.4183 -1.0963,0.4183 -1.5166,0 -0.4203,-0.4183 -0.4203,-1.0912 0,-1.5095 l 9.4649,-9.4206 c 4.4036,-4.4012 11.8038,-6.9655 19.7704,-6.8564 8.0945,0.1092 15.3668,2.8008 19.9713,7.3656 l 37.8775,37.7007 c 4.568,4.5466 7.108,11.6394 6.98,19.4778 -0.128,7.602 -2.868,14.7857 -7.308,19.2232 l -7.328,7.2924 c -0.2,0.2 -0.475,0.31 -0.749,0.31 z"
       fill="#00ff68"
       id="path2" />
  </g>
  <defs
     id="defs13">
    <filter
       id="filter0_f_9_517"
       x="0"
       y="0"
       width="158"
       height="157"
       filterUnits="userSpaceOnUse"
       color-interpolation-filters="sRGB">
      <feFlood
         flood-opacity="0"
         result="BackgroundImageFix"
         id="feFlood6" />
      <feBlend
         mode="normal"
         in="SourceGraphic"
         in2="BackgroundImageFix"
         result="shape"
         id="feBlend8" />
      <feGaussianBlur
         stdDeviation="7.5"
         result="effect1_foregroundBlur_9_517"
         id="feGaussianBlur10" />
    </filter>
    <filter
       id="filter0_f_9_518"
       x="0"
       y="0"
       width="78"
       height="77"
       filterUnits="userSpaceOnUse"
       color-interpolation-filters="sRGB">
      <feFlood
         flood-opacity="0"
         result="BackgroundImageFix"
         id="feFlood40" />
      <feBlend
         mode="normal"
         in="SourceGraphic"
         in2="BackgroundImageFix"
         result="shape"
         id="feBlend42" />
      <feGaussianBlur
         stdDeviation="1"
         result="effect1_foregroundBlur_9_518"
         id="feGaussianBlur44" />
    </filter>
    <filter
       id="filter0_f_9_520"
       x="0"
       y="0"
       width="116"
       height="115"
       filterUnits="userSpaceOnUse"
       color-interpolation-filters="sRGB">
      <feFlood
         flood-opacity="0"
         result="BackgroundImageFix"
         id="feFlood82" />
      <feBlend
         mode="normal"
         in="SourceGraphic"
         in2="BackgroundImageFix"
         result="shape"
         id="feBlend84" />
      <feGaussianBlur
         stdDeviation="2"
         result="effect1_foregroundBlur_9_520"
         id="feGaussianBlur86" />
    </filter>
    <filter
       id="filter0_f_29_3"
       x="-87"
       y="0"
       width="148"
       height="147"
       filterUnits="userSpaceOnUse"
       color-interpolation-filters="sRGB">
      <feFlood
         flood-opacity="0"
         result="BackgroundImageFix"
         id="feFlood162" />
      <feBlend
         mode="normal"
         in="SourceGraphic"
         in2="BackgroundImageFix"
         result="shape"
         id="feBlend164" />
      <feGaussianBlur
         stdDeviation="5"
         result="effect1_foregroundBlur_29_3"
         id="feGaussianBlur166" />
    </filter>
  </defs>
  <g
     style="fill:none"
     id="g59"
     transform="translate(516.3568,2.6384)">
    <path
       d="m 39.9651,75 c -0.4119,0 -0.8239,-0.0105 -1.2464,-0.0314 -4.7748,-0.2613 -9.222,-1.9862 -11.884,-4.6205 L 5.94002,49.6603 C 3.29914,47.0468 1.8625,42.7817 2.01039,37.973 2.15828,33.3107 3.80619,28.9724 6.43651,26.3799 l 8.46139,-8.3734 c 0.243,-0.2404 0.6338,-0.2404 0.8768,0 0.2429,0.2404 0.2429,0.6272 0,0.8677 L 7.31328,27.2476 C 4.9048,29.631 3.39421,33.6557 3.25689,38.0044 3.11956,42.4159 4.45057,46.4405 6.8168,48.7822 L 27.722,69.47 c 2.4508,2.4253 6.5917,4.0247 11.0706,4.2651 4.5317,0.2404 8.6198,-0.9826 10.9438,-3.2825 l 8.7149,-8.6242 c 0.243,-0.2405 0.6338,-0.2405 0.8768,0 0.243,0.2404 0.243,0.6272 0,0.8676 l -8.7149,8.6243 C 48.2364,73.6933 44.4018,75 39.9651,75 Z M 67.1028,54.5212 c -0.1584,0 -0.3169,-0.0627 -0.4436,-0.1777 -0.243,-0.2404 -0.243,-0.6272 0,-0.8676 l 4.236,-4.192 c 2.3451,-2.3207 3.7923,-6.1363 3.8556,-10.1923 0.074,-4.171 -1.2676,-7.9239 -3.6655,-10.3073 L 49.1871,7.11378 C 46.7892,4.74079 42.7962,3.28773 38.5074,3.23546 34.2292,3.18319 30.289,4.51081 27.965,6.81062 l -5.4719,5.41498 c -0.243,0.2405 -0.6338,0.2405 -0.8768,0 -0.243,-0.2404 -0.243,-0.6272 0,-0.8676 l 5.4719,-5.41504 c 2.5458,-2.52979 6.824,-4.00376 11.4297,-3.94104 4.6797,0.06273 8.884,1.60987 11.546,4.23375 L 71.9621,27.9062 c 2.6409,2.6134 4.1092,6.6903 4.0352,11.1958 -0.0739,4.3697 -1.6584,8.4989 -4.2254,11.0496 l -4.2359,4.1919 c -0.1162,0.115 -0.2747,0.1777 -0.4332,0.1777 z"
       fill="#00ff68"
       id="path36"
       style="filter:url(#filter0_f_9_518)" />
  </g>
  <g
     style="fill:none"
     id="g101"
     transform="translate(514.14921,274.57339)">
    <path
       d="m 59.4086,111 c -0.6013,0 -1.2025,-0.015 -1.8192,-0.046 -6.9685,-0.383 -13.4591,-2.911 -17.3442,-6.773 L 9.7503,73.8582 C 5.89604,70.0276 3.79933,63.776 4.01517,56.7276 4.231,49.8938 6.63606,43.5349 10.4749,39.7349 L 22.824,27.4616 c 0.3545,-0.3524 0.925,-0.3524 1.2796,0 0.3546,0.3524 0.3546,0.9194 0,1.2718 L 11.7545,41.0067 C 8.23943,44.5002 6.0348,50.3994 5.83438,56.7736 5.63395,63.2397 7.5765,69.1389 11.0299,72.5711 l 30.5103,30.3229 c 3.5768,3.555 9.6203,5.9 16.1571,6.252 6.6139,0.352 12.5803,-1.44 15.9721,-4.811 l 12.719,-12.6414 c 0.3546,-0.3524 0.925,-0.3524 1.2796,0 0.3546,0.3524 0.3546,0.9194 0,1.2718 L 74.949,105.606 C 71.4801,109.085 65.8838,111 59.4086,111 Z M 99.015,80.9832 c -0.2313,0 -0.4625,-0.092 -0.6476,-0.2605 -0.3545,-0.3524 -0.3545,-0.9194 0,-1.2718 l 6.1826,-6.1443 c 3.422,-3.4016 5.534,-8.9943 5.627,-14.9395 0.108,-6.1137 -1.85,-11.6144 -5.35,-15.108 L 72.8677,11.4955 C 69.368,8.01732 63.5404,5.88749 57.281,5.81088 51.0371,5.73427 45.2866,7.68023 41.8948,11.0512 l -7.986,7.937 c -0.3546,0.3525 -0.925,0.3525 -1.2796,0 -0.3546,-0.3524 -0.3546,-0.9193 0,-1.2717 l 7.986,-7.93709 C 44.3307,6.07136 50.5746,3.91089 57.2965,4.00282 64.1262,4.09476 70.2622,6.36249 74.1473,10.2084 L 106.107,41.972 c 3.854,3.8307 5.997,9.8064 5.889,16.4105 -0.108,6.4048 -2.42,12.4572 -6.167,16.1959 l -6.1819,6.1443 c -0.1696,0.1685 -0.4009,0.2605 -0.6321,0.2605 z"
       fill="#00ff68"
       id="path78"
       style="filter:url(#filter0_f_9_520)" />
  </g>
  <g
     style="fill:none"
     id="g120"
     transform="translate(277.03151,333.04729)">
    <path
       opacity="0.3"
       d="m 18.5044,37 c 0.2115,0 0.4231,-0.0053 0.6401,-0.0159 2.4519,-0.1325 4.7356,-1.0067 6.1026,-2.3419 L 35.9767,24.1566 c 1.3562,-1.3246 2.0939,-3.4864 2.018,-5.9237 -0.076,-2.3631 -0.9222,-4.5619 -2.2729,-5.876 l -4.345,-4.24401 c -0.1248,-0.12186 -0.3255,-0.12186 -0.4503,0 -0.1247,0.12186 -0.1247,0.31791 0,0.43977 l 4.3451,4.24404 c 1.2367,1.2081 2.0125,3.248 2.083,5.4521 0.0705,2.236 -0.613,4.2759 -1.8281,5.4627 L 24.7914,34.1971 c -1.2585,1.2293 -3.3849,2.0399 -5.6849,2.1618 -2.3271,0.1219 -4.4264,-0.4981 -5.6198,-1.6637 L 9.01148,30.324 c -0.12476,-0.1219 -0.32547,-0.1219 -0.45023,0 -0.12476,0.1218 -0.12476,0.3179 0,0.4397 l 4.47525,4.3712 C 14.257,36.3377 16.2261,37 18.5044,37 Z M 4.56881,26.6203 c 0.08137,0 0.16273,-0.0317 0.22783,-0.09 0.12477,-0.1219 0.12477,-0.3179 0,-0.4398 L 2.62141,23.9658 C 1.41717,22.7896 0.674007,20.8556 0.64146,18.7998 0.603489,16.6858 1.2924,14.7836 2.52377,13.5756 L 13.7688,2.59191 C 15.0001,1.38917 17.0506,0.652684 19.253,0.626191 21.4499,0.599699 23.4732,1.2726 24.6666,2.43826 l 2.8099,2.74459 c 0.1248,0.12187 0.3255,0.12187 0.4503,0 0.1247,-0.12186 0.1247,-0.3179 0,-0.43977 L 25.1169,1.99849 C 23.8096,0.716265 21.6126,-0.0308154 19.2475,9.75265e-4 16.8445,0.0327659 14.6855,0.816935 13.3185,2.14684 L 2.07353,13.1305 C 0.717403,14.4551 -0.036602,16.5215 0.00136948,18.8051 0.039341,21.0199 0.853016,23.1128 2.17117,24.4056 l 2.17523,2.1247 c 0.05967,0.0583 0.14104,0.09 0.22241,0.09 z"
       fill="#00ff68"
       id="path111" />
  </g>
  <g
     style="fill:none"
     id="g139"
     transform="translate(155.76812)">
    <path
       opacity="0.3"
       d="m 18.5044,37 c 0.2115,0 0.4231,-0.0053 0.6401,-0.0159 2.4519,-0.1325 4.7356,-1.0067 6.1026,-2.3419 L 35.9767,24.1566 c 1.3562,-1.3246 2.0939,-3.4864 2.018,-5.9237 -0.076,-2.3631 -0.9222,-4.5619 -2.2729,-5.876 l -4.345,-4.24401 c -0.1248,-0.12186 -0.3255,-0.12186 -0.4503,0 -0.1247,0.12186 -0.1247,0.31791 0,0.43977 l 4.3451,4.24404 c 1.2367,1.2081 2.0125,3.248 2.083,5.4521 0.0705,2.236 -0.613,4.2759 -1.8281,5.4627 L 24.7914,34.1971 c -1.2585,1.2293 -3.3849,2.0399 -5.6849,2.1618 -2.3271,0.1219 -4.4264,-0.4981 -5.6198,-1.6637 L 9.01148,30.324 c -0.12476,-0.1219 -0.32547,-0.1219 -0.45023,0 -0.12476,0.1218 -0.12476,0.3179 0,0.4397 l 4.47525,4.3712 C 14.257,36.3377 16.2261,37 18.5044,37 Z M 4.56881,26.6203 c 0.08137,0 0.16273,-0.0317 0.22783,-0.09 0.12477,-0.1219 0.12477,-0.3179 0,-0.4398 L 2.62141,23.9658 C 1.41717,22.7896 0.674007,20.8556 0.64146,18.7998 0.603489,16.6858 1.2924,14.7836 2.52377,13.5756 L 13.7688,2.59191 C 15.0001,1.38917 17.0506,0.652684 19.253,0.626191 21.4499,0.599699 23.4732,1.2726 24.6666,2.43826 l 2.8099,2.74459 c 0.1248,0.12187 0.3255,0.12187 0.4503,0 0.1247,-0.12186 0.1247,-0.3179 0,-0.43977 L 25.1169,1.99849 C 23.8096,0.716265 21.6126,-0.0308154 19.2475,9.75265e-4 16.8445,0.0327659 14.6855,0.816935 13.3185,2.14684 L 2.07353,13.1305 C 0.717403,14.4551 -0.036602,16.5215 0.00136948,18.8051 0.039341,21.0199 0.853016,23.1128 2.17117,24.4056 l 2.17523,2.1247 c 0.05967,0.0583 0.14104,0.09 0.22241,0.09 z"
       fill="#00ff68"
       id="path130" />
  </g>
  <g
     style="fill:none"
     id="g181"
     transform="translate(87,132.87283)">
    <path
       d="m -14.6694,137 c 0.7126,0 1.4252,-0.018 2.1561,-0.055 8.25892,-0.454 15.95146,-3.455 20.55601,-8.038 L 44.1848,92.9158 C 48.7528,88.3692 51.2378,80.9491 50.982,72.5833 50.7262,64.472 47.8758,56.9246 43.326,52.4144 L 28.6901,37.8469 c -0.4202,-0.4182 -1.0963,-0.4182 -1.5166,0 -0.4202,0.4183 -0.4202,1.0912 0,1.5095 l 14.636,14.5675 c 4.166,4.1465 6.7789,11.1483 7.0164,18.7139 0.2376,7.6747 -2.0647,14.6766 -6.1577,18.7503 L 6.50786,127.379 c -4.23911,4.22 -11.40176,7.002 -19.14906,7.42 -7.8388,0.419 -14.91,-1.709 -18.9299,-5.71 l -15.0744,-15.004 c -0.4203,-0.418 -1.0964,-0.418 -1.5166,0 -0.4203,0.418 -0.4203,1.091 0,1.509 l 15.0744,15.004 c 4.1112,4.129 10.744,6.402 18.4183,6.402 z m -46.9409,-35.627 c 0.274,0 0.5481,-0.11 0.7674,-0.31 0.4203,-0.418 0.4203,-1.0908 0,-1.5091 L -68.17,92.2611 c -4.0564,-4.0374 -6.5597,-10.6755 -6.6693,-17.7319 -0.1279,-7.2564 2.1926,-13.7854 6.3404,-17.9319 l 37.878,-37.7007 c 4.1477,-4.1284 11.0545,-6.6563 18.473,-6.7472 7.40017,-0.091 14.21565,2.2187 18.2355,6.2198 l 9.4649,9.4206 c 0.4203,0.4183 1.0963,0.4183 1.5166,0 0.4203,-0.4183 0.4203,-1.0912 0,-1.5095 L 7.60418,16.8597 C 3.20062,12.4585 -4.19957,9.89423 -12.1662,10.0033 c -8.0945,0.1092 -15.3668,2.8008 -19.9713,7.3656 l -37.878,37.7007 c -4.568,4.5466 -7.1078,11.6394 -6.9799,19.4778 0.1279,7.602 2.8687,14.7857 7.3088,19.2232 l 7.3271,7.2924 c 0.201,0.2 0.4751,0.31 0.7492,0.31 z"
       fill="#00ff68"
       id="path158"
       style="filter:url(#filter0_f_29_3)" />
  </g>
</svg>
