<svg width="63" height="63" viewBox="0 0 63 63" fill="none" xmlns="http://www.w3.org/2000/svg">
<path d="M24.3806 1.89327C18.347 6.51278 12.7386 11.6626 7.62242 17.2813C9.02186 19.9925 9.70259 21.3364 11.0436 24.0009C11.0639 24.0284 11.0815 24.0577 11.0962 24.0886C14.0236 29.9726 16.9189 35.8772 19.8113 41.7788C20.9098 44.0225 22.318 45.346 23.5772 45.3314C24.702 45.3314 25.9495 44.2709 27.0218 42.442C28.0297 44.4345 28.5351 45.4307 29.5548 47.4087C28.8329 48.3227 27.9149 49.0628 26.8687 49.5746C25.8225 50.0863 24.6747 50.3565 23.51 50.3653C19.6623 50.3799 16.729 47.4437 15.239 44.119C11.587 36.5228 7.93503 28.953 4.16326 21.4212C3.39586 22.3911 2.63917 23.3776 1.89319 24.3807C-0.631063 28.2956 -0.631063 33.7999 1.89319 37.7148C8.37966 46.1618 15.9425 53.7246 24.3894 60.2111C28.3043 62.7353 33.8086 62.7353 37.7235 60.2111C46.1705 53.7246 53.7333 46.1618 60.2197 37.7148C62.744 33.797 62.7411 28.2986 60.2197 24.3807C59.4718 23.3757 58.7151 22.397 57.9497 21.4328C54.1867 28.9676 50.5259 36.5491 46.871 44.1365C45.3781 47.4525 42.4448 50.3945 38.5971 50.3799C35.2898 50.2309 32.5377 48.1011 30.9133 45.311C30.9117 45.3187 30.9117 45.3266 30.9133 45.3343C29.844 43.2454 29.3123 42.2024 28.2576 40.1164L27.6733 38.9477C27.6476 38.9174 27.6241 38.8851 27.6032 38.8513C27.4045 38.454 27.311 38.267 27.1036 37.8638C25.3954 34.4729 23.7019 31.0887 22.0229 27.7113C21.0307 26.0591 20.4972 24.1722 20.4774 22.245C20.4745 22.1905 20.4745 22.1359 20.4774 22.0814C20.5125 16.3113 25.3448 11.777 31.0448 11.7741C36.8208 11.7741 41.6677 16.3989 41.6122 22.245C41.6122 22.2947 41.6122 22.3444 41.6122 22.394C41.5682 24.1942 41.0772 25.9552 40.1835 27.5185C38.4305 30.8647 36.6873 34.2119 34.9539 37.56C33.8553 35.4009 33.309 34.3229 32.2193 32.1726C33.6187 29.3825 34.314 27.986 35.7252 25.19C35.7515 25.1433 35.7748 25.0965 35.804 25.0498C36.2927 24.209 36.5535 23.2554 36.5607 22.283C36.5607 22.248 36.5607 22.2129 36.5607 22.1778C36.5468 20.7157 35.9526 19.319 34.9088 18.2949C33.8651 17.2709 32.4573 16.7034 30.9951 16.7174C29.533 16.7313 28.1362 17.3256 27.1122 18.3693C26.0882 19.4131 25.5207 20.8209 25.5347 22.283C25.5347 22.3239 25.5347 22.3619 25.5347 22.3999C25.5612 23.3812 25.8475 24.3379 26.3644 25.1725C26.4047 25.2378 26.4418 25.305 26.4754 25.3741C27.5827 27.574 28.129 28.6725 29.2276 30.8666H29.2042C30.7176 33.8583 32.2348 36.8491 33.756 39.8388V39.8593C34.1329 40.613 34.3199 40.987 34.6997 41.7408L34.7289 41.7934C35.8566 43.9816 37.2824 45.2993 38.527 45.3168C39.7716 45.3343 41.1973 44.0079 42.2958 41.7671C46.313 33.5866 50.3302 25.3887 54.4876 17.2667C49.3677 11.6509 43.7542 6.50578 37.7148 1.89327C35.7112 0.655557 33.4027 0 31.0477 0C28.6927 0 26.3842 0.655557 24.3806 1.89327Z" fill="url(#paint0_linear_9_316)"/>
<defs>
<linearGradient id="paint0_linear_9_316" x1="60.4179" y1="31.0521" x2="0" y2="31.0521" gradientUnits="userSpaceOnUse">
<stop stop-color="#00E6E3"/>
<stop offset="1" stop-color="#00FF68"/>
</linearGradient>
</defs>
</svg>
